<svg id="svg" version="1.1" width="512" height="512" xmlns="http://www.w3.org/2000/svg" xmlns:xlink="http://www.w3.org/1999/xlink" ><g id="svgg"><path id="path0" d="M28.748 64.008 C -5.662 75.011,-4.631 124.954,30.191 133.920 C 34.388 135.001,43.496 135.156,102.697 135.156 C 148.907 135.156,171.474 135.426,173.779 136.007 C 181.226 137.882,185.647 143.978,186.450 153.482 L 186.945 159.336 99.918 159.551 L 12.891 159.766 9.766 161.452 C 5.778 163.604,2.752 166.798,1.213 170.483 C -0.626 174.886,-0.626 322.770,1.213 327.174 C 2.822 331.025,5.936 334.246,9.766 336.019 C 14.651 338.281,385.349 338.281,390.234 336.019 C 394.064 334.246,397.178 331.025,398.787 327.174 C 400.626 322.770,400.626 174.886,398.787 170.483 C 397.248 166.798,394.222 163.604,390.234 161.452 L 387.109 159.766 296.680 159.551 L 206.250 159.337 206.250 153.024 C 206.250 135.880,197.375 122.981,181.444 116.971 C 176.987 115.289,176.410 115.273,105.469 114.865 L 33.984 114.453 30.674 112.207 C 18.474 103.931,22.693 85.621,37.444 82.823 C 40.179 82.304,96.423 82.031,200.471 82.031 L 359.323 82.031 362.083 79.271 C 366.833 74.521,365.818 66.600,360.079 63.632 C 356.295 61.675,34.904 62.040,28.748 64.008 M49.219 191.797 L 49.219 200.781 37.891 200.781 L 26.563 200.781 26.563 191.797 L 26.563 182.813 37.891 182.813 L 49.219 182.813 49.219 191.797 M92.188 191.797 L 92.188 200.781 80.859 200.781 L 69.531 200.781 69.531 191.797 L 69.531 182.813 80.859 182.813 L 92.188 182.813 92.188 191.797 M132.813 191.797 L 132.813 200.781 121.484 200.781 L 110.156 200.781 110.156 191.797 L 110.156 182.813 121.484 182.813 L 132.813 182.813 132.813 191.797 M173.438 191.797 L 173.438 200.781 162.109 200.781 L 150.781 200.781 150.781 191.797 L 150.781 182.813 162.109 182.813 L 173.438 182.813 173.438 191.797 M214.063 191.797 L 214.063 200.781 202.734 200.781 L 191.406 200.781 191.406 191.797 L 191.406 182.813 202.734 182.813 L 214.063 182.813 214.063 191.797 M254.688 191.797 L 254.688 200.781 243.750 200.781 L 232.813 200.781 232.813 191.797 L 232.813 182.813 243.750 182.813 L 254.688 182.813 254.688 191.797 M296.094 191.797 L 296.094 200.781 284.766 200.781 L 273.438 200.781 273.438 191.797 L 273.438 182.813 284.766 182.813 L 296.094 182.813 296.094 191.797 M336.719 191.797 L 336.719 200.781 325.391 200.781 L 314.063 200.781 314.063 191.797 L 314.063 182.813 325.391 182.813 L 336.719 182.813 336.719 191.797 M377.344 191.797 L 377.344 200.781 366.016 200.781 L 354.688 200.781 354.688 191.797 L 354.688 182.813 366.016 182.813 L 377.344 182.813 377.344 191.797 M67.969 230.078 L 67.969 239.063 47.266 239.063 L 26.563 239.063 26.563 230.078 L 26.563 221.094 47.266 221.094 L 67.969 221.094 67.969 230.078 M112.500 230.078 L 112.500 239.063 101.172 239.063 L 89.844 239.063 89.844 230.078 L 89.844 221.094 101.172 221.094 L 112.500 221.094 112.500 230.078 M153.125 230.078 L 153.125 239.063 141.797 239.063 L 130.469 239.063 130.469 230.078 L 130.469 221.094 141.797 221.094 L 153.125 221.094 153.125 230.078 M193.750 230.078 L 193.750 239.063 182.813 239.063 L 171.875 239.063 171.875 230.078 L 171.875 221.094 182.813 221.094 L 193.750 221.094 193.750 230.078 M235.156 230.078 L 235.156 239.063 223.828 239.063 L 212.500 239.063 212.500 230.078 L 212.500 221.094 223.828 221.094 L 235.156 221.094 235.156 230.078 M275.781 230.078 L 275.781 239.063 264.453 239.063 L 253.125 239.063 253.125 230.078 L 253.125 221.094 264.453 221.094 L 275.781 221.094 275.781 230.078 M316.406 230.078 L 316.406 239.063 305.078 239.063 L 293.750 239.063 293.750 230.078 L 293.750 221.094 305.078 221.094 L 316.406 221.094 316.406 230.078 M377.344 230.078 L 377.344 239.063 355.859 239.063 L 334.375 239.063 334.375 230.078 L 334.375 221.094 355.859 221.094 L 377.344 221.094 377.344 230.078 M49.219 267.578 L 49.219 276.563 37.891 276.563 L 26.563 276.563 26.563 267.578 L 26.563 258.594 37.891 258.594 L 49.219 258.594 49.219 267.578 M92.188 267.578 L 92.188 276.563 80.859 276.563 L 69.531 276.563 69.531 267.578 L 69.531 258.594 80.859 258.594 L 92.188 258.594 92.188 267.578 M132.813 267.578 L 132.813 276.563 121.484 276.563 L 110.156 276.563 110.156 267.578 L 110.156 258.594 121.484 258.594 L 132.813 258.594 132.813 267.578 M173.438 267.578 L 173.438 276.563 162.109 276.563 L 150.781 276.563 150.781 267.578 L 150.781 258.594 162.109 258.594 L 173.438 258.594 173.438 267.578 M214.063 267.578 L 214.063 276.563 202.734 276.563 L 191.406 276.563 191.406 267.578 L 191.406 258.594 202.734 258.594 L 214.063 258.594 214.063 267.578 M254.688 267.578 L 254.688 276.563 243.750 276.563 L 232.813 276.563 232.813 267.578 L 232.813 258.594 243.750 258.594 L 254.688 258.594 254.688 267.578 M296.094 267.578 L 296.094 276.563 284.766 276.563 L 273.438 276.563 273.438 267.578 L 273.438 258.594 284.766 258.594 L 296.094 258.594 296.094 267.578 M336.719 267.578 L 336.719 276.563 325.391 276.563 L 314.063 276.563 314.063 267.578 L 314.063 258.594 325.391 258.594 L 336.719 258.594 336.719 267.578 M377.344 267.578 L 377.344 276.563 366.016 276.563 L 354.688 276.563 354.688 267.578 L 354.688 258.594 366.016 258.594 L 377.344 258.594 377.344 267.578 M49.219 306.250 L 49.219 314.844 37.891 314.844 L 26.563 314.844 26.563 306.250 L 26.563 297.656 37.891 297.656 L 49.219 297.656 49.219 306.250 M92.188 306.250 L 92.188 314.844 80.859 314.844 L 69.531 314.844 69.531 306.250 L 69.531 297.656 80.859 297.656 L 92.188 297.656 92.188 306.250 M254.688 306.250 L 254.688 314.844 182.422 314.844 L 110.156 314.844 110.156 306.250 L 110.156 297.656 182.422 297.656 L 254.688 297.656 254.688 306.250 M296.094 306.250 L 296.094 314.844 284.766 314.844 L 273.438 314.844 273.438 306.250 L 273.438 297.656 284.766 297.656 L 296.094 297.656 296.094 306.250 M336.719 306.250 L 336.719 314.844 325.391 314.844 L 314.063 314.844 314.063 306.250 L 314.063 297.656 325.391 297.656 L 336.719 297.656 336.719 306.250 M377.344 306.250 L 377.344 314.844 366.016 314.844 L 354.688 314.844 354.688 306.250 L 354.688 297.656 366.016 297.656 L 377.344 297.656 377.344 306.250 " stroke="turquoise" fill="paleturquoise" fill-rule="evenodd"></path></g></svg>