<svg id="svg" version="1.1" width="400" height="360.63492063492066" viewBox="0 0 400 360.63492063492066" xmlns="http://www.w3.org/2000/svg" xmlns:xlink="http://www.w3.org/1999/xlink" ><g id="svgg">


<path id="path1" d="M199.820 86.713 C 196.455 86.935,193.526 87.301,193.081 87.556 C 192.647 87.804,191.344 88.007,190.185 88.007 C 188.851 88.007,187.780 88.216,187.267 88.575 C 186.820 88.888,185.568 89.235,184.484 89.347 C 183.399 89.459,182.328 89.771,182.104 90.041 C 181.880 90.311,181.187 90.532,180.564 90.532 C 179.940 90.532,178.825 90.857,178.084 91.253 C 177.344 91.650,176.352 91.975,175.880 91.975 C 175.407 91.975,174.819 92.218,174.572 92.516 C 174.325 92.813,173.675 93.057,173.129 93.057 C 172.582 93.057,171.938 93.294,171.698 93.584 C 171.457 93.874,170.910 94.212,170.481 94.336 C 169.514 94.616,164.290 97.184,161.948 98.531 C 161.650 98.702,160.879 99.085,160.234 99.381 C 159.590 99.677,159.062 100.080,159.062 100.275 C 159.062 100.471,158.844 100.631,158.576 100.631 C 158.309 100.631,157.716 100.956,157.259 101.353 C 156.801 101.749,156.226 102.074,155.980 102.074 C 155.734 102.074,155.439 102.317,155.325 102.615 C 155.211 102.913,154.894 103.156,154.621 103.156 C 154.348 103.156,153.831 103.481,153.472 103.877 C 153.113 104.274,152.637 104.599,152.414 104.599 C 152.191 104.599,151.741 104.883,151.413 105.230 C 150.648 106.040,149.999 106.590,147.542 108.509 C 146.439 109.371,145.407 110.304,145.248 110.583 C 145.089 110.863,144.724 111.091,144.437 111.091 C 144.149 111.091,143.913 111.335,143.913 111.632 C 143.913 111.930,143.759 112.173,143.569 112.173 C 143.152 112.173,141.389 113.892,141.389 114.298 C 141.389 114.457,141.064 114.962,140.667 115.419 C 140.271 115.877,139.946 116.531,139.946 116.873 C 139.946 117.215,139.702 117.697,139.405 117.944 C 138.648 118.572,138.607 127.146,139.359 127.435 C 139.632 127.539,139.961 128.190,140.091 128.881 C 140.220 129.572,140.565 130.229,140.857 130.342 C 141.150 130.454,141.389 130.713,141.389 130.917 C 141.389 131.414,144.168 134.175,144.668 134.175 C 144.885 134.175,145.475 134.500,145.979 134.896 C 146.484 135.293,147.260 135.618,147.705 135.618 C 148.150 135.618,148.716 135.861,148.963 136.159 C 149.577 136.898,155.532 136.936,156.139 136.204 C 156.366 135.931,157.179 135.607,157.948 135.484 C 158.716 135.362,159.438 135.017,159.553 134.718 C 159.667 134.419,159.973 134.175,160.233 134.175 C 160.493 134.175,160.958 133.891,161.267 133.544 C 161.575 133.197,162.533 132.344,163.394 131.650 C 164.255 130.956,165.256 130.104,165.618 129.757 C 165.980 129.409,166.349 129.125,166.438 129.125 C 166.527 129.125,167.054 128.701,167.610 128.183 C 168.953 126.931,171.539 125.158,172.022 125.158 C 172.234 125.158,172.408 125.004,172.408 124.817 C 172.408 124.477,173.359 123.874,175.539 122.832 C 176.170 122.530,176.788 122.118,176.913 121.917 C 177.037 121.716,177.388 121.551,177.692 121.551 C 177.996 121.551,178.658 121.226,179.162 120.830 C 179.667 120.433,180.362 120.108,180.708 120.108 C 181.054 120.108,181.521 119.886,181.747 119.613 C 181.973 119.341,182.725 119.027,183.418 118.914 C 184.111 118.802,184.932 118.456,185.241 118.147 C 185.551 117.837,186.341 117.583,186.997 117.583 C 187.653 117.583,188.391 117.340,188.638 117.042 C 188.885 116.745,189.676 116.496,190.396 116.489 C 191.115 116.482,192.353 116.163,193.147 115.780 C 194.033 115.352,195.374 115.078,196.622 115.071 C 197.740 115.064,199.120 114.816,199.688 114.520 C 200.519 114.086,202.380 113.981,209.197 113.981 C 216.015 113.981,217.876 114.086,218.707 114.520 C 219.275 114.816,220.655 115.064,221.773 115.071 C 223.021 115.078,224.362 115.352,225.248 115.780 C 226.041 116.163,227.279 116.482,227.999 116.489 C 228.719 116.496,229.492 116.724,229.718 116.996 C 229.943 117.267,230.787 117.578,231.593 117.686 C 232.399 117.795,233.343 118.140,233.690 118.455 C 234.038 118.769,234.663 119.026,235.079 119.026 C 235.496 119.026,236.080 119.270,236.378 119.567 C 236.675 119.865,237.230 120.108,237.611 120.108 C 237.991 120.108,238.677 120.433,239.134 120.830 C 239.592 121.226,240.271 121.551,240.644 121.551 C 241.016 121.551,241.415 121.794,241.529 122.092 C 241.643 122.390,242.044 122.633,242.419 122.633 C 242.795 122.633,243.400 122.917,243.765 123.264 C 244.557 124.019,245.487 124.645,246.709 125.246 C 247.205 125.490,247.773 125.873,247.971 126.097 C 248.170 126.321,249.299 127.205,250.482 128.062 C 251.664 128.920,253.421 130.402,254.386 131.357 C 255.351 132.312,256.290 133.093,256.474 133.093 C 256.658 133.093,256.808 133.336,256.808 133.634 C 256.808 133.931,257.051 134.175,257.349 134.175 C 257.647 134.175,257.890 134.306,257.890 134.466 C 257.890 134.627,258.864 135.794,260.054 137.060 C 261.244 138.327,262.218 139.558,262.218 139.796 C 262.218 140.034,262.462 140.323,262.759 140.437 C 263.057 140.551,263.300 140.804,263.300 140.998 C 263.300 141.192,263.728 141.806,264.250 142.362 C 264.772 142.918,265.423 143.900,265.697 144.545 C 265.971 145.189,266.356 145.717,266.551 145.717 C 266.747 145.717,266.907 145.938,266.907 146.209 C 266.907 146.480,267.232 147.114,267.628 147.619 C 268.025 148.123,268.350 148.777,268.350 149.072 C 268.350 149.366,268.578 149.695,268.857 149.802 C 269.136 149.909,269.471 150.483,269.601 151.078 C 269.732 151.673,270.072 152.353,270.357 152.589 C 270.642 152.825,270.875 153.320,270.875 153.687 C 270.875 154.055,271.199 154.887,271.595 155.537 C 271.991 156.186,272.320 157.042,272.328 157.439 C 272.335 157.836,272.579 158.476,272.870 158.861 C 273.161 159.246,273.399 160.017,273.399 160.575 C 273.399 161.133,273.724 162.195,274.121 162.936 C 274.518 163.676,274.842 164.941,274.842 165.748 C 274.842 166.554,275.039 167.411,275.280 167.652 C 275.543 167.915,275.831 169.922,276.000 172.683 C 276.155 175.210,276.416 178.129,276.579 179.170 C 276.743 180.212,276.743 181.916,276.579 182.958 C 276.416 183.999,276.154 186.931,275.999 189.472 C 275.840 192.062,275.545 194.202,275.327 194.341 C 275.114 194.478,274.863 195.520,274.771 196.658 C 274.672 197.879,274.357 198.999,274.001 199.392 C 273.670 199.757,273.399 200.641,273.399 201.355 C 273.399 202.069,273.156 202.897,272.858 203.195 C 272.561 203.492,272.317 204.112,272.316 204.573 C 272.315 205.033,271.991 205.942,271.595 206.591 C 271.199 207.241,270.875 208.073,270.875 208.441 C 270.875 208.808,270.642 209.303,270.357 209.539 C 270.072 209.775,269.737 210.431,269.613 210.996 C 269.489 211.561,269.154 212.112,268.869 212.222 C 268.583 212.331,268.350 212.726,268.350 213.099 C 268.350 213.471,268.025 214.150,267.628 214.608 C 267.232 215.065,266.907 215.658,266.907 215.925 C 266.907 216.193,266.736 216.411,266.528 216.411 C 266.319 216.411,265.983 216.885,265.781 217.464 C 265.579 218.044,265.182 218.607,264.898 218.715 C 264.614 218.824,264.382 219.162,264.382 219.466 C 264.382 219.769,264.215 220.018,264.010 220.018 C 263.806 220.018,263.534 220.302,263.406 220.649 C 263.095 221.493,261.025 224.060,258.702 226.483 C 257.660 227.569,256.808 228.588,256.808 228.747 C 256.808 228.905,256.649 229.035,256.455 229.035 C 256.261 229.035,255.227 229.887,254.157 230.929 C 253.087 231.970,251.856 233.066,251.422 233.363 C 250.988 233.661,249.385 234.837,247.859 235.978 C 246.334 237.118,244.900 238.051,244.673 238.052 C 244.447 238.052,244.168 238.296,244.054 238.593 C 243.939 238.891,243.541 239.134,243.168 239.134 C 242.796 239.134,242.117 239.459,241.659 239.856 C 241.202 240.252,240.523 240.577,240.150 240.577 C 239.777 240.577,239.379 240.821,239.265 241.118 C 239.151 241.416,238.694 241.659,238.249 241.659 C 237.805 241.659,237.067 241.984,236.610 242.381 C 236.152 242.777,235.333 243.102,234.790 243.102 C 234.246 243.102,233.717 243.322,233.613 243.591 C 233.510 243.860,232.739 244.173,231.900 244.285 C 231.061 244.398,230.255 244.682,230.110 244.917 C 229.965 245.152,229.055 245.433,228.088 245.540 C 227.121 245.648,226.005 245.935,225.609 246.179 C 225.212 246.423,223.773 246.719,222.411 246.837 C 221.049 246.954,219.685 247.257,219.380 247.511 C 218.541 248.207,199.811 248.171,198.968 247.472 C 198.636 247.196,197.199 246.893,195.757 246.796 C 194.321 246.699,192.904 246.417,192.606 246.169 C 192.308 245.921,191.287 245.636,190.337 245.535 C 189.387 245.434,188.319 245.089,187.964 244.768 C 187.609 244.447,186.824 244.184,186.220 244.184 C 185.615 244.184,184.918 243.940,184.671 243.643 C 184.424 243.345,183.858 243.102,183.413 243.102 C 182.968 243.102,182.191 242.777,181.687 242.381 C 181.183 241.984,180.450 241.659,180.059 241.659 C 179.669 241.659,179.156 241.426,178.919 241.141 C 178.683 240.856,178.027 240.522,177.462 240.398 C 176.898 240.274,176.346 239.939,176.236 239.653 C 176.127 239.368,175.782 239.134,175.470 239.134 C 174.892 239.134,172.688 237.739,172.465 237.232 C 172.397 237.078,171.829 236.734,171.202 236.468 C 170.576 236.202,169.608 235.557,169.053 235.034 C 168.497 234.512,167.896 234.085,167.718 234.085 C 167.540 234.085,167.264 233.878,167.105 233.625 C 166.947 233.373,166.411 232.904,165.915 232.585 C 165.419 232.266,164.317 231.336,163.465 230.520 C 162.614 229.703,161.757 229.035,161.561 229.035 C 161.364 229.035,161.114 228.802,161.005 228.516 C 160.895 228.231,160.333 227.893,159.756 227.767 C 159.178 227.640,158.565 227.284,158.393 226.977 C 157.933 226.155,148.284 226.163,147.824 226.986 C 147.655 227.288,147.044 227.640,146.466 227.767 C 145.889 227.893,145.327 228.231,145.217 228.516 C 145.108 228.802,144.859 229.035,144.665 229.035 C 144.159 229.035,142.471 230.663,142.471 231.150 C 142.471 231.376,142.227 231.560,141.930 231.560 C 141.632 231.560,141.389 231.873,141.389 232.256 C 141.389 232.638,141.150 233.190,140.857 233.482 C 140.565 233.775,140.172 234.698,139.984 235.536 C 139.796 236.373,139.467 237.233,139.253 237.447 C 138.673 238.027,138.758 242.204,139.360 242.704 C 139.633 242.930,139.956 243.741,140.078 244.505 C 140.200 245.269,140.545 246.097,140.844 246.345 C 141.144 246.594,141.389 247.062,141.389 247.387 C 141.389 247.711,141.957 248.498,142.651 249.135 C 143.345 249.772,143.913 250.461,143.913 250.665 C 143.913 250.870,144.116 251.040,144.364 251.043 C 144.612 251.047,145.181 251.436,145.629 251.908 C 146.076 252.380,147.253 253.384,148.244 254.140 C 149.234 254.895,150.045 255.642,150.045 255.800 C 150.045 255.958,150.280 256.087,150.568 256.087 C 150.856 256.087,151.221 256.289,151.380 256.537 C 151.755 257.123,153.879 258.611,154.341 258.611 C 154.537 258.611,154.828 258.814,154.987 259.062 C 155.386 259.687,157.288 260.982,158.258 261.290 C 158.700 261.431,159.062 261.681,159.062 261.847 C 159.062 262.012,159.509 262.323,160.054 262.538 C 161.064 262.936,161.728 263.310,163.466 264.458 C 164.004 264.813,164.676 265.104,164.960 265.104 C 165.245 265.104,165.571 265.347,165.685 265.645 C 165.799 265.942,166.263 266.189,166.715 266.194 C 167.168 266.198,167.944 266.519,168.440 266.907 C 168.936 267.295,169.687 267.616,170.109 267.620 C 170.531 267.625,171.079 267.872,171.326 268.170 C 171.572 268.467,172.120 268.712,172.542 268.713 C 172.964 268.714,173.796 269.038,174.391 269.432 C 174.986 269.826,175.900 270.150,176.421 270.151 C 176.942 270.152,177.554 270.376,177.779 270.648 C 178.005 270.920,178.908 271.224,179.786 271.323 C 180.665 271.422,181.647 271.767,181.971 272.090 C 182.351 272.470,183.171 272.678,184.292 272.678 C 185.309 272.678,186.193 272.880,186.430 273.166 C 186.668 273.452,187.967 273.750,189.566 273.885 C 191.068 274.012,192.646 274.361,193.073 274.659 C 193.641 275.058,194.863 275.206,197.646 275.215 C 199.734 275.222,202.741 275.463,204.328 275.749 C 207.972 276.408,210.423 276.408,214.067 275.749 C 215.654 275.463,218.661 275.222,220.749 275.215 C 223.563 275.206,224.751 275.059,225.337 274.649 C 225.771 274.345,227.228 273.996,228.573 273.875 C 229.918 273.753,231.339 273.434,231.730 273.166 C 232.122 272.898,233.056 272.678,233.806 272.678 C 234.556 272.678,235.775 272.353,236.515 271.957 C 237.256 271.560,238.269 271.230,238.768 271.224 C 239.267 271.218,239.990 270.974,240.376 270.683 C 240.761 270.392,241.512 270.153,242.045 270.153 C 242.578 270.153,243.217 269.908,243.465 269.609 C 243.714 269.310,244.542 268.965,245.306 268.843 C 246.070 268.720,246.880 268.397,247.107 268.125 C 247.333 267.852,247.783 267.627,248.105 267.626 C 248.428 267.625,249.179 267.301,249.775 266.907 C 250.370 266.513,251.146 266.189,251.499 266.188 C 251.853 266.187,252.235 265.942,252.349 265.645 C 252.463 265.347,252.842 265.104,253.191 265.104 C 253.540 265.104,254.238 264.779,254.742 264.382 C 255.247 263.986,255.898 263.661,256.189 263.661 C 256.481 263.661,256.922 263.417,257.169 263.120 C 257.416 262.822,257.816 262.579,258.059 262.579 C 258.301 262.579,258.793 262.254,259.152 261.858 C 259.511 261.461,260.105 261.136,260.471 261.136 C 260.837 261.136,261.136 261.003,261.136 260.840 C 261.136 260.516,263.906 258.611,264.376 258.611 C 264.535 258.611,264.759 258.368,264.873 258.070 C 264.988 257.773,265.294 257.529,265.553 257.529 C 265.813 257.529,266.282 257.245,266.595 256.898 C 266.908 256.551,267.626 255.942,268.192 255.546 C 268.758 255.149,269.511 254.540,269.867 254.193 C 270.223 253.846,270.582 253.562,270.666 253.562 C 270.875 253.562,275.652 249.042,277.487 247.108 C 278.314 246.237,279.842 244.636,280.884 243.551 C 281.925 242.466,282.777 241.435,282.777 241.258 C 282.777 241.082,282.935 240.938,283.129 240.938 C 283.322 240.938,283.711 240.491,283.994 239.946 C 284.277 239.400,284.890 238.539,285.356 238.032 C 286.492 236.797,289.270 232.708,289.270 232.270 C 289.270 232.078,289.440 231.921,289.649 231.921 C 289.858 231.921,290.198 231.434,290.406 230.839 C 290.613 230.243,290.913 229.757,291.073 229.757 C 291.233 229.757,291.539 229.310,291.754 228.765 C 292.134 227.800,292.299 227.477,293.188 225.969 C 293.421 225.573,293.850 224.732,294.141 224.100 C 294.431 223.469,294.834 222.851,295.035 222.727 C 295.236 222.602,295.401 222.170,295.401 221.767 C 295.401 221.364,295.726 220.621,296.123 220.116 C 296.519 219.612,296.844 218.810,296.844 218.335 C 296.844 217.860,297.087 217.377,297.385 217.263 C 297.683 217.149,297.926 216.666,297.926 216.191 C 297.926 215.716,298.251 214.721,298.647 213.981 C 299.044 213.240,299.369 212.279,299.369 211.844 C 299.369 211.408,299.612 210.809,299.910 210.511 C 300.207 210.214,300.451 209.429,300.451 208.767 C 300.451 208.105,300.775 206.958,301.172 206.218 C 301.583 205.452,301.894 204.183,301.894 203.273 C 301.894 202.394,302.111 201.457,302.377 201.191 C 302.654 200.914,302.956 199.476,303.083 197.829 C 303.205 196.246,303.548 194.301,303.846 193.508 C 304.667 191.318,304.668 170.445,303.847 168.519 C 303.532 167.781,303.185 165.879,303.074 164.292 C 302.963 162.705,302.652 161.087,302.383 160.695 C 302.114 160.304,301.894 159.328,301.894 158.526 C 301.894 157.724,301.569 156.462,301.172 155.722 C 300.775 154.982,300.451 153.827,300.451 153.156 C 300.451 152.486,300.228 151.752,299.957 151.527 C 299.685 151.301,299.376 150.474,299.271 149.689 C 299.166 148.904,298.820 148.002,298.503 147.685 C 298.186 147.368,297.926 146.633,297.926 146.052 C 297.926 145.471,297.770 144.995,297.579 144.995 C 297.389 144.995,297.061 144.387,296.852 143.643 C 296.643 142.899,296.231 141.975,295.936 141.590 C 295.642 141.205,295.401 140.523,295.401 140.075 C 295.401 139.627,295.198 139.131,294.950 138.972 C 294.702 138.813,294.013 137.738,293.417 136.583 C 291.577 133.010,291.326 132.573,290.831 132.078 C 290.567 131.814,290.352 131.367,290.352 131.083 C 290.352 130.800,290.068 130.263,289.720 129.890 C 288.637 128.725,287.827 127.552,287.827 127.148 C 287.827 126.935,287.543 126.487,287.196 126.152 C 285.816 124.821,285.302 124.177,285.302 123.775 C 285.302 123.544,285.175 123.354,285.019 123.354 C 284.864 123.354,284.452 122.873,284.104 122.284 C 283.756 121.695,282.747 120.458,281.862 119.534 C 280.977 118.610,280.252 117.797,280.252 117.727 C 280.252 117.473,272.294 109.648,272.036 109.648 C 271.891 109.648,271.250 109.080,270.613 108.386 C 269.976 107.692,269.312 107.124,269.138 107.124 C 268.965 107.124,268.529 106.799,268.170 106.402 C 267.810 106.005,267.298 105.681,267.032 105.681 C 266.765 105.681,266.546 105.541,266.546 105.370 C 266.546 105.016,262.368 102.074,261.864 102.074 C 261.682 102.074,261.403 101.868,261.244 101.615 C 261.086 101.363,260.550 100.956,260.054 100.710 C 259.558 100.464,258.665 99.940,258.070 99.545 C 257.475 99.149,256.461 98.581,255.816 98.281 C 255.171 97.981,254.644 97.576,254.644 97.380 C 254.644 97.184,254.304 97.024,253.889 97.024 C 253.474 97.024,252.722 96.700,252.217 96.303 C 251.713 95.906,250.993 95.582,250.616 95.582 C 250.240 95.582,249.839 95.338,249.725 95.041 C 249.610 94.743,249.169 94.498,248.744 94.497 C 248.319 94.496,247.484 94.172,246.889 93.778 C 246.294 93.384,245.453 93.060,245.021 93.059 C 244.589 93.058,244.020 92.841,243.756 92.577 C 243.492 92.313,242.649 91.996,241.882 91.871 C 241.115 91.747,240.211 91.395,239.873 91.088 C 239.535 90.782,238.682 90.532,237.978 90.532 C 237.274 90.532,236.515 90.311,236.291 90.041 C 236.066 89.771,234.996 89.459,233.911 89.347 C 232.827 89.235,231.574 88.888,231.128 88.575 C 230.614 88.215,229.543 88.007,228.199 88.007 C 227.034 88.007,225.650 87.778,225.123 87.498 C 224.486 87.159,221.812 86.856,217.133 86.592 C 209.278 86.150,208.257 86.157,199.820 86.713 " stroke="none" fill="pink" fill-rule="evenodd"></path>


<path id="path2" d="M201.082 85.134 C 196.102 85.639,191.676 86.288,190.081 86.748 C 189.188 87.006,187.606 87.328,186.565 87.465 C 185.524 87.602,184.587 87.852,184.483 88.020 C 184.378 88.188,183.526 88.434,182.589 88.566 C 181.651 88.699,180.559 89.008,180.162 89.254 C 179.766 89.500,178.800 89.821,178.017 89.966 C 177.233 90.112,176.264 90.461,175.862 90.742 C 175.461 91.023,174.829 91.253,174.457 91.253 C 174.085 91.253,173.350 91.486,172.824 91.770 C 172.297 92.054,171.136 92.610,170.243 93.007 C 167.551 94.204,162.581 96.675,161.046 97.581 C 160.252 98.049,159.360 98.554,159.062 98.702 C 158.765 98.851,157.250 99.837,155.696 100.894 C 140.088 111.516,135.573 117.879,137.774 126.155 C 138.778 129.927,143.337 135.978,145.175 135.978 C 145.380 135.978,146.194 136.328,146.985 136.755 C 149.118 137.907,156.049 137.912,158.155 136.763 C 158.946 136.331,159.741 135.978,159.921 135.978 C 160.294 135.978,163.111 133.739,164.478 132.356 C 164.977 131.851,166.681 130.433,168.265 129.204 C 169.849 127.975,171.307 126.841,171.506 126.685 C 172.182 126.150,178.741 122.455,180.536 121.597 C 181.521 121.126,182.786 120.517,183.348 120.244 C 183.909 119.971,184.558 119.742,184.790 119.735 C 185.022 119.729,185.861 119.409,186.655 119.026 C 187.448 118.643,188.422 118.323,188.819 118.315 C 189.216 118.307,189.963 118.080,190.479 117.810 C 190.995 117.541,192.213 117.204,193.184 117.062 C 194.156 116.920,195.681 116.585,196.573 116.319 C 201.131 114.957,219.714 115.030,222.417 116.420 C 222.784 116.609,223.814 116.875,224.707 117.011 C 227.359 117.416,234.706 119.952,236.970 121.244 C 237.268 121.414,237.917 121.714,238.413 121.912 C 238.909 122.110,239.558 122.435,239.856 122.634 C 240.153 122.833,240.787 123.163,241.265 123.368 C 241.742 123.573,242.846 124.221,243.717 124.810 C 244.589 125.398,245.380 125.879,245.475 125.879 C 245.640 125.879,247.966 127.622,250.656 129.761 C 252.830 131.490,255.087 133.576,256.967 135.593 C 257.970 136.671,259.035 137.809,259.333 138.123 C 261.826 140.747,268.711 150.981,268.711 152.062 C 268.711 152.168,269.132 153.177,269.648 154.305 C 271.426 158.199,271.596 158.633,271.608 159.297 C 271.614 159.664,271.857 160.279,272.149 160.664 C 272.440 161.049,272.676 161.698,272.673 162.107 C 272.670 162.515,272.982 163.904,273.366 165.194 C 275.102 171.026,275.839 184.819,274.714 190.442 C 273.094 198.537,272.632 200.451,272.038 201.509 C 271.795 201.943,271.596 202.567,271.596 202.897 C 271.596 203.496,271.419 203.945,269.648 207.823 C 269.132 208.951,268.711 210.047,268.711 210.257 C 268.711 210.468,268.559 210.640,268.374 210.640 C 268.189 210.640,267.925 211.005,267.787 211.452 C 266.767 214.755,259.110 224.907,254.672 228.842 C 253.993 229.444,253.262 230.107,253.048 230.315 C 250.151 233.136,243.853 237.377,239.134 239.684 C 232.707 242.826,228.834 244.279,225.111 244.944 C 224.044 245.135,222.908 245.431,222.586 245.602 C 219.544 247.221,200.200 247.095,195.208 245.423 C 194.358 245.138,193.222 244.904,192.684 244.903 C 192.145 244.902,191.251 244.664,190.697 244.376 C 190.143 244.087,189.088 243.740,188.353 243.605 C 187.617 243.470,186.695 243.140,186.304 242.870 C 185.913 242.601,185.362 242.381,185.081 242.381 C 184.600 242.381,181.899 241.240,180.703 240.532 C 180.406 240.356,179.919 240.120,179.621 240.008 C 179.324 239.896,178.837 239.650,178.539 239.462 C 178.242 239.274,177.511 238.870,176.916 238.564 C 175.056 237.610,170.274 234.551,169.883 234.066 C 169.784 233.943,169.438 233.694,169.115 233.513 C 168.446 233.137,165.404 230.590,163.232 228.586 C 162.426 227.844,161.450 227.132,161.063 227.006 C 160.675 226.879,160.136 226.554,159.865 226.282 C 159.593 226.011,159.018 225.783,158.586 225.776 C 158.153 225.769,157.394 225.531,156.898 225.248 C 155.678 224.550,151.118 224.550,149.448 225.248 C 148.736 225.546,147.860 225.789,147.502 225.789 C 147.144 225.789,146.636 225.998,146.374 226.253 C 146.112 226.509,145.329 227.066,144.635 227.492 C 139.228 230.808,136.292 239.761,138.864 245.086 C 139.247 245.879,139.566 246.667,139.573 246.837 C 139.608 247.708,142.353 250.696,145.862 253.681 C 146.834 254.508,147.895 255.428,148.218 255.726 C 150.101 257.457,156.437 261.859,158.702 263.008 C 159.197 263.260,159.684 263.572,159.784 263.702 C 159.883 263.832,160.938 264.456,162.128 265.090 C 163.318 265.724,164.536 266.379,164.833 266.546 C 165.338 266.829,169.788 268.911,172.227 270.005 C 173.806 270.713,176.347 271.594,177.984 272.000 C 178.770 272.196,179.581 272.490,179.787 272.655 C 179.994 272.820,180.730 273.068,181.425 273.205 C 182.119 273.342,183.336 273.668,184.130 273.928 C 185.763 274.464,188.521 275.069,191.704 275.591 C 192.894 275.786,195.248 276.185,196.934 276.478 C 201.196 277.219,217.844 277.215,220.920 276.472 C 222.110 276.185,223.716 275.944,224.489 275.937 C 225.885 275.924,231.474 274.765,233.544 274.058 C 234.139 273.855,235.390 273.536,236.324 273.350 C 237.258 273.164,238.475 272.775,239.029 272.486 C 239.583 272.197,240.370 271.960,240.779 271.959 C 241.187 271.958,241.836 271.718,242.221 271.427 C 242.606 271.136,243.140 270.892,243.408 270.886 C 243.676 270.880,244.487 270.610,245.211 270.286 C 245.936 269.962,247.259 269.372,248.151 268.975 C 250.398 267.975,256.117 265.161,256.970 264.635 C 257.357 264.397,258.451 263.674,259.401 263.030 C 260.351 262.385,261.213 261.858,261.317 261.858 C 261.420 261.858,262.314 261.289,263.304 260.595 C 264.294 259.901,265.956 258.741,266.997 258.018 C 268.039 257.296,269.134 256.481,269.432 256.208 C 269.729 255.935,270.703 255.106,271.596 254.366 C 275.499 251.131,280.488 246.124,283.361 242.561 C 284.321 241.371,285.408 240.072,285.777 239.675 C 286.870 238.501,291.421 231.765,292.236 230.117 C 292.481 229.621,292.781 229.134,292.904 229.035 C 293.541 228.518,298.124 218.976,299.401 215.509 C 299.839 214.319,300.417 212.834,300.685 212.209 C 300.953 211.584,301.172 210.802,301.172 210.472 C 301.172 210.142,301.363 209.517,301.595 209.084 C 301.828 208.650,302.225 207.403,302.478 206.312 C 302.730 205.221,303.096 203.679,303.290 202.885 C 305.102 195.491,305.676 190.175,305.666 180.884 C 305.658 173.624,305.129 167.143,304.254 163.571 C 303.963 162.381,303.628 160.639,303.510 159.702 C 303.391 158.764,303.142 157.902,302.955 157.787 C 302.768 157.671,302.617 157.221,302.620 156.787 C 302.626 155.907,301.365 151.542,300.620 149.865 C 300.356 149.270,300.036 148.377,299.910 147.881 C 299.783 147.385,299.464 146.492,299.199 145.897 C 298.935 145.302,298.419 144.100,298.052 143.226 C 296.923 140.536,293.221 133.359,292.118 131.722 C 291.543 130.869,291.073 130.097,291.073 130.005 C 291.073 129.914,290.474 128.989,289.743 127.949 C 289.011 126.910,287.799 125.167,287.048 124.076 C 286.298 122.985,285.233 121.595,284.681 120.987 C 284.130 120.379,283.030 119.083,282.236 118.106 C 280.389 115.832,275.054 110.518,272.798 108.705 C 271.839 107.934,270.973 107.196,270.873 107.065 C 270.674 106.804,266.045 103.277,263.580 101.509 C 262.104 100.450,255.773 96.677,254.644 96.183 C 254.346 96.053,253.859 95.783,253.562 95.584 C 253.264 95.384,252.615 95.059,252.119 94.861 C 251.623 94.663,250.974 94.362,250.676 94.193 C 249.845 93.718,247.817 92.820,245.627 91.957 C 244.536 91.528,242.882 90.869,241.953 90.493 C 241.024 90.118,240.003 89.811,239.686 89.811 C 239.369 89.811,238.749 89.585,238.310 89.309 C 237.871 89.033,236.744 88.699,235.806 88.566 C 234.869 88.434,234.016 88.188,233.912 88.020 C 233.808 87.852,232.871 87.602,231.830 87.465 C 230.789 87.328,229.206 87.006,228.314 86.748 C 226.694 86.281,222.413 85.664,216.952 85.111 C 213.511 84.762,204.620 84.775,201.082 85.134 M219.657 86.033 C 222.335 86.340,225.663 86.828,227.051 87.119 C 228.440 87.409,230.307 87.801,231.199 87.989 C 234.543 88.693,236.870 89.380,241.298 90.969 C 247.436 93.171,254.924 96.679,258.670 99.107 C 259.198 99.449,260.415 100.206,261.375 100.787 C 269.551 105.744,280.229 115.783,286.719 124.617 C 289.728 128.712,290.909 130.493,291.863 132.372 C 292.115 132.867,292.436 133.358,292.576 133.461 C 292.716 133.564,293.007 134.051,293.221 134.543 C 293.435 135.035,294.086 136.310,294.667 137.377 C 295.544 138.987,297.801 144.005,298.985 146.979 C 300.901 151.792,302.788 158.447,303.383 162.489 C 303.558 163.679,303.870 165.140,304.077 165.735 C 304.284 166.330,304.638 169.988,304.864 173.863 C 305.687 187.957,304.143 200.568,300.273 211.362 C 298.903 215.184,298.192 217.065,297.751 218.034 C 293.609 227.136,290.558 232.354,285.663 238.705 C 280.531 245.362,277.476 248.535,269.952 255.017 C 268.167 256.555,261.322 261.497,260.978 261.497 C 260.886 261.497,260.071 261.997,259.166 262.607 C 257.308 263.862,247.149 269.070,246.555 269.073 C 246.342 269.075,245.713 269.313,245.158 269.603 C 244.602 269.892,243.628 270.289,242.993 270.484 C 242.359 270.679,240.866 271.187,239.675 271.613 C 223.596 277.367,199.864 278.180,184.671 273.497 C 183.977 273.283,182.191 272.747,180.703 272.307 C 179.216 271.866,177.465 271.282,176.814 271.010 C 176.162 270.737,175.450 270.514,175.230 270.514 C 175.011 270.514,174.083 270.172,173.168 269.754 C 172.254 269.336,171.019 268.785,170.424 268.530 C 168.655 267.773,162.947 264.892,161.587 264.069 C 160.893 263.650,160.081 263.195,159.784 263.058 C 159.113 262.750,156.422 261.036,156.177 260.760 C 156.078 260.648,155.347 260.167,154.554 259.690 C 149.688 256.764,141.699 249.527,140.343 246.815 C 139.867 245.864,139.311 244.761,139.106 244.364 C 138.282 242.768,138.358 237.846,139.245 235.440 C 143.199 224.712,155.607 222.126,164.261 230.226 C 165.499 231.384,169.760 234.786,170.677 235.347 C 171.001 235.546,172.132 236.294,173.190 237.011 C 175.621 238.659,179.129 240.539,182.146 241.813 C 183.436 242.357,184.977 243.007,185.573 243.258 C 198.936 248.897,218.066 248.880,232.822 243.216 C 238.158 241.168,247.506 236.057,248.873 234.440 C 248.972 234.322,250.189 233.327,251.578 232.227 C 259.840 225.684,266.906 216.128,271.139 205.771 C 271.545 204.779,272.077 203.481,272.321 202.885 C 272.911 201.451,273.808 198.026,275.060 192.426 C 275.579 190.102,275.705 187.890,275.705 181.064 C 275.705 172.540,275.620 171.729,274.061 165.374 C 272.602 159.429,272.081 158.017,269.068 151.849 C 264.607 142.717,258.145 134.817,250.038 128.584 C 249.780 128.386,249.372 128.061,249.131 127.863 C 244.977 124.445,232.596 117.952,230.220 117.945 C 229.978 117.945,229.248 117.719,228.597 117.445 C 219.669 113.680,198.726 113.680,189.798 117.445 C 189.147 117.719,188.335 117.950,187.995 117.956 C 187.655 117.963,186.727 118.282,185.933 118.665 C 185.140 119.049,184.337 119.368,184.150 119.375 C 183.796 119.387,178.763 121.702,177.818 122.287 C 177.520 122.472,176.790 122.872,176.195 123.178 C 174.815 123.887,172.424 125.375,171.145 126.320 C 168.855 128.013,164.696 131.367,163.488 132.494 C 153.278 142.023,138.412 136.299,138.345 122.813 C 138.308 115.483,141.793 111.144,155.150 101.894 C 159.417 98.939,171.226 92.696,172.549 92.696 C 172.845 92.696,173.171 92.560,173.273 92.394 C 173.376 92.227,174.887 91.641,176.631 91.090 C 178.375 90.540,180.207 89.926,180.703 89.726 C 182.402 89.040,185.194 88.368,192.245 86.946 C 199.410 85.501,211.492 85.099,219.657 86.033 M200.361 133.100 C 192.812 134.144,185.489 136.752,180.513 140.167 C 179.725 140.709,178.414 141.606,177.600 142.162 C 172.925 145.352,162.669 157.871,162.669 160.386 C 162.669 160.507,162.367 161.273,161.998 162.089 C 161.089 164.096,160.520 165.739,159.966 167.960 C 159.711 168.985,159.384 170.014,159.241 170.246 C 159.098 170.477,158.775 172.957,158.524 175.756 C 156.442 198.973,168.478 218.190,190.442 226.715 C 197.863 229.596,209.292 230.251,217.313 228.255 C 220.858 227.373,222.054 227.010,222.790 226.595 C 223.223 226.350,223.765 226.150,223.994 226.150 C 224.387 226.150,230.188 223.362,231.740 222.428 C 232.477 221.984,234.338 220.769,234.986 220.309 C 238.865 217.555,245.271 210.698,247.588 206.822 C 249.014 204.435,251.395 199.741,251.410 199.285 C 251.417 199.083,251.736 198.269,252.119 197.475 C 252.502 196.682,252.821 195.738,252.828 195.378 C 252.835 195.017,253.004 194.417,253.204 194.043 C 253.404 193.669,253.891 191.473,254.286 189.162 C 257.678 169.323,248.460 149.496,231.098 139.284 C 229.356 138.259,227.832 137.421,227.711 137.421 C 227.590 137.421,226.824 137.112,226.009 136.733 C 223.141 135.402,220.778 134.536,220.018 134.536 C 219.595 134.536,218.905 134.352,218.485 134.126 C 215.924 132.756,206.647 132.231,200.361 133.100 " stroke="none" fill="pink" fill-rule="evenodd">

</path><path id="path3" d="M195.491 16.071 C 190.053 16.528,183.760 17.308,179.621 18.037 C 176.259 18.630,173.618 19.148,172.047 19.523 C 171.154 19.737,169.450 20.134,168.260 20.407 C 167.069 20.680,164.959 21.239,163.571 21.649 C 162.182 22.059,160.234 22.614,159.243 22.883 C 158.251 23.151,156.871 23.573,156.177 23.820 C 155.482 24.066,154.346 24.468,153.652 24.712 C 150.583 25.792,145.514 27.719,143.733 28.481 C 139.225 30.411,130.827 34.520,127.863 36.245 C 126.673 36.938,125.212 37.752,124.617 38.055 C 123.366 38.690,122.772 39.058,120.400 40.667 C 119.450 41.312,118.596 41.839,118.503 41.839 C 118.318 41.839,113.466 45.113,110.870 46.988 C 87.699 63.730,68.180 87.597,56.820 113.075 C 56.290 114.265,55.542 115.906,55.159 116.721 C 54.777 117.536,54.463 118.460,54.463 118.774 C 54.463 119.088,54.307 119.441,54.116 119.559 C 53.925 119.677,53.609 120.295,53.414 120.933 C 53.220 121.570,52.633 123.228,52.110 124.617 C 51.588 126.005,51.032 127.628,50.875 128.224 C 50.718 128.819,50.420 129.711,50.213 130.207 C 50.006 130.703,49.489 132.326,49.065 133.814 C 48.641 135.302,47.975 137.574,47.586 138.864 C 47.197 140.153,46.881 141.563,46.884 141.996 C 46.887 142.430,46.713 143.241,46.498 143.800 C 46.002 145.090,44.994 150.343,43.813 157.800 C 41.480 172.517,41.989 196.790,44.919 210.640 C 45.191 211.930,45.510 213.634,45.626 214.427 C 45.742 215.221,46.059 216.763,46.331 217.854 C 47.594 222.924,48.429 226.087,48.853 227.412 C 49.106 228.206,49.769 230.316,50.326 232.101 C 50.882 233.886,51.473 235.501,51.638 235.690 C 51.803 235.878,51.939 236.341,51.939 236.717 C 51.939 237.094,52.174 237.914,52.462 238.539 C 52.750 239.164,53.721 241.499,54.620 243.728 C 55.519 245.957,56.409 248.067,56.598 248.417 C 56.787 248.767,58.007 251.244,59.309 253.922 C 60.611 256.601,62.243 259.766,62.936 260.956 C 63.629 262.146,64.443 263.607,64.745 264.202 C 65.380 265.452,65.749 266.047,67.358 268.418 C 68.003 269.369,68.530 270.219,68.530 270.308 C 68.530 270.468,71.647 275.064,74.173 278.629 C 74.876 279.621,76.069 281.163,76.825 282.056 C 77.581 282.949,78.955 284.653,79.878 285.843 C 80.801 287.033,82.967 289.533,84.692 291.399 C 86.416 293.264,88.027 295.072,88.271 295.417 C 88.791 296.153,97.355 304.151,100.419 306.763 C 101.582 307.755,102.714 308.729,102.935 308.927 C 103.156 309.125,104.244 309.963,105.353 310.789 C 106.462 311.615,107.602 312.507,107.887 312.773 C 108.172 313.038,108.888 313.593,109.478 314.006 C 110.068 314.419,111.443 315.382,112.534 316.147 C 117.288 319.482,123.271 323.358,124.513 323.908 C 124.967 324.109,125.987 324.660,126.781 325.133 C 129.347 326.663,138.190 331.089,141.548 332.526 C 146.304 334.560,151.270 336.519,151.676 336.522 C 151.870 336.523,152.464 336.751,152.996 337.029 C 153.529 337.306,154.502 337.652,155.159 337.796 C 155.816 337.940,156.842 338.263,157.438 338.512 C 158.436 338.931,161.209 339.765,165.735 341.009 C 171.207 342.513,183.250 344.777,188.819 345.348 C 206.181 347.129,217.209 346.877,234.626 344.299 C 239.553 343.570,249.663 341.390,250.706 340.832 C 251.060 340.642,251.685 340.487,252.094 340.487 C 252.759 340.487,255.403 339.719,258.431 338.645 C 259.026 338.434,260.243 338.046,261.136 337.781 C 262.029 337.517,263.652 336.950,264.743 336.522 C 265.834 336.094,267.214 335.596,267.809 335.416 C 268.404 335.235,269.216 334.937,269.612 334.754 C 271.482 333.889,273.775 332.886,275.810 332.044 C 279.797 330.393,291.259 324.401,294.247 322.406 C 295.100 321.837,295.857 321.371,295.928 321.371 C 296.325 321.371,309.483 312.172,310.730 311.023 C 311.127 310.657,312.750 309.305,314.336 308.019 C 317.158 305.732,320.427 302.797,323.370 299.910 C 337.439 286.109,331.489 262.859,312.429 257.155 C 309.118 256.164,300.702 256.266,297.926 257.331 C 292.861 259.273,290.405 260.926,284.564 266.321 C 281.834 268.843,279.337 270.920,277.187 272.457 C 268.954 278.342,262.302 282.303,255.906 285.130 C 254.716 285.656,253.255 286.308,252.660 286.580 C 247.228 289.057,235.801 292.489,229.396 293.567 C 222.532 294.721,218.008 295.224,210.723 295.640 C 204.621 295.990,188.846 294.377,183.048 292.811 C 182.254 292.597,180.712 292.211,179.621 291.955 C 175.031 290.874,167.839 288.538,166.029 287.540 C 165.596 287.301,165.078 287.106,164.878 287.106 C 164.476 287.106,159.364 284.785,155.996 283.074 C 151.669 280.876,144.254 276.319,140.288 273.420 C 133.471 268.439,124.765 260.261,120.108 254.463 C 118.833 252.876,117.702 251.497,117.595 251.398 C 116.621 250.498,110.811 242.011,109.077 238.954 C 106.118 233.737,105.904 233.321,103.142 227.412 C 102.152 225.294,100.273 220.607,100.272 220.253 C 100.271 220.084,100.046 219.435,99.772 218.810 C 99.294 217.722,98.323 214.677,97.223 210.821 C 92.218 193.269,92.210 168.683,97.204 151.488 C 98.481 147.093,99.348 144.349,99.787 143.318 C 100.053 142.693,100.271 142.044,100.272 141.875 C 100.276 140.713,105.608 129.132,107.802 125.518 C 108.224 124.824,108.773 123.850,109.023 123.354 C 109.490 122.426,110.808 120.296,112.482 117.764 C 113.753 115.840,118.381 109.515,118.684 109.288 C 118.815 109.188,119.767 108.089,120.798 106.845 C 124.591 102.268,129.160 97.761,135.287 92.550 C 137.121 90.991,142.708 86.918,145.176 85.342 C 146.366 84.581,147.746 83.682,148.242 83.344 C 148.738 83.005,149.387 82.610,149.684 82.465 C 149.982 82.320,150.875 81.814,151.668 81.340 C 154.015 79.938,164.094 75.023,164.622 75.023 C 164.777 75.023,165.416 74.786,166.041 74.498 C 170.535 72.422,181.213 69.436,189.179 68.026 C 200.259 66.066,216.523 66.044,226.510 67.977 C 227.998 68.265,230.108 68.672,231.199 68.882 C 234.851 69.585,241.407 71.255,242.561 71.777 C 242.958 71.956,243.850 72.263,244.545 72.459 C 246.111 72.900,248.813 73.849,249.775 74.295 C 250.171 74.479,251.551 75.061,252.840 75.588 C 255.550 76.696,262.451 80.083,264.563 81.342 C 265.356 81.815,266.249 82.320,266.546 82.465 C 266.844 82.610,267.493 83.005,267.989 83.344 C 268.485 83.682,269.865 84.582,271.055 85.343 C 275.985 88.498,281.653 92.946,286.564 97.515 C 297.087 107.305,313.039 106.980,322.987 96.773 C 324.551 95.167,327.288 91.107,327.679 89.811 C 327.829 89.315,328.075 88.747,328.227 88.548 C 330.893 85.059,330.355 73.689,327.246 67.816 C 321.728 57.392,296.992 39.263,275.203 29.674 C 270.459 27.586,268.269 26.691,267.908 26.691 C 267.715 26.691,267.046 26.471,266.421 26.204 C 264.045 25.185,259.356 23.606,254.644 22.236 C 249.822 20.835,248.754 20.576,239.675 18.604 C 238.287 18.302,235.801 17.892,234.152 17.691 C 232.503 17.491,231.009 17.238,230.832 17.128 C 229.089 16.052,204.479 15.315,195.491 16.071 " stroke="none" fill="pink" fill-rule="evenodd"></path></g></svg>