<svg id="svg" version="1.1" width="400" height="401.3333333333333" viewBox="0 0 400 401.3333333333333" xmlns="http://www.w3.org/2000/svg" xmlns:xlink="http://www.w3.org/1999/xlink" ><g id="svgg"><path id="path0" d="M39.500 0.273 C 38.235 0.365,37.200 0.602,37.200 0.800 C 37.200 0.998,36.120 1.282,34.800 1.432 C 33.480 1.581,32.400 1.860,32.400 2.052 C 32.400 2.243,31.950 2.400,31.400 2.400 C 30.850 2.400,30.400 2.566,30.400 2.768 C 30.400 2.971,29.815 3.263,29.100 3.418 C 28.385 3.574,27.710 3.825,27.600 3.978 C 27.490 4.130,26.530 4.671,25.468 5.179 C 24.405 5.687,23.441 6.349,23.325 6.651 C 23.209 6.953,22.768 7.200,22.345 7.200 C 21.921 7.200,21.471 7.470,21.345 7.800 C 21.218 8.130,20.902 8.400,20.642 8.400 C 20.383 8.400,19.355 9.165,18.359 10.100 C 17.363 11.035,16.045 12.160,15.430 12.600 C 14.066 13.576,13.680 13.964,12.400 15.644 C 11.850 16.366,10.770 17.617,10.000 18.423 C 8.438 20.058,7.785 20.967,7.205 22.310 C 6.989 22.811,6.556 23.319,6.242 23.439 C 5.929 23.559,5.563 24.095,5.428 24.629 C 5.294 25.163,5.008 25.600,4.792 25.600 C 4.577 25.600,4.400 25.960,4.400 26.400 C 4.400 26.840,4.236 27.200,4.035 27.200 C 3.834 27.200,3.549 27.920,3.400 28.800 C 3.251 29.680,2.966 30.400,2.765 30.400 C 2.564 30.400,2.400 30.670,2.400 31.000 C 2.400 31.330,2.240 31.600,2.045 31.600 C 1.850 31.600,1.564 32.455,1.408 33.500 C 1.252 34.545,0.917 35.653,0.663 35.961 C 0.011 36.752,0.010 56.311,0.661 56.715 C 0.914 56.872,1.250 57.855,1.406 58.900 C 1.563 59.945,1.850 60.800,2.045 60.800 C 2.240 60.800,2.400 61.250,2.400 61.800 C 2.400 62.350,2.560 62.800,2.755 62.800 C 2.951 62.800,3.229 63.430,3.374 64.200 C 3.518 64.970,3.808 65.600,4.018 65.600 C 4.228 65.600,4.400 65.870,4.400 66.200 C 4.400 66.530,4.557 66.800,4.750 66.800 C 4.942 66.800,5.213 67.364,5.351 68.054 C 5.489 68.743,5.935 69.598,6.344 69.954 C 6.752 70.309,7.213 71.005,7.370 71.500 C 7.526 71.995,7.822 72.400,8.027 72.400 C 8.232 72.400,8.400 72.670,8.400 73.000 C 8.400 73.330,8.568 73.600,8.773 73.600 C 8.978 73.600,9.271 73.994,9.424 74.475 C 9.576 74.956,10.308 75.922,11.051 76.622 C 11.793 77.322,12.400 78.040,12.400 78.218 C 12.400 78.396,80.599 146.724,163.953 230.056 L 315.506 381.570 318.053 382.230 C 319.454 382.592,320.960 383.032,321.400 383.207 C 322.959 383.827,327.068 384.800,328.126 384.800 C 328.717 384.800,329.200 384.937,329.200 385.105 C 329.200 385.451,332.636 386.409,334.900 386.695 C 335.725 386.799,336.400 387.045,336.400 387.242 C 336.400 387.439,336.827 387.600,337.350 387.600 C 337.872 387.600,339.065 387.870,340.000 388.200 C 340.935 388.530,342.128 388.800,342.650 388.800 C 343.173 388.800,343.600 388.980,343.600 389.200 C 343.600 389.420,344.185 389.608,344.900 389.618 C 345.615 389.627,346.920 389.895,347.800 390.212 C 348.680 390.529,349.805 390.791,350.300 390.794 C 350.795 390.797,351.200 390.980,351.200 391.200 C 351.200 391.420,351.593 391.600,352.074 391.600 C 352.889 391.600,357.052 392.593,358.400 393.109 C 359.308 393.456,363.218 394.411,364.800 394.672 C 365.570 394.799,366.290 395.031,366.400 395.187 C 366.594 395.462,369.660 396.233,372.300 396.672 C 373.015 396.790,373.600 397.025,373.600 397.192 C 373.600 397.360,374.680 397.619,376.000 397.768 C 377.320 397.918,378.400 398.211,378.400 398.420 C 378.400 398.629,379.030 398.800,379.800 398.800 C 380.570 398.800,381.200 398.959,381.200 399.154 C 381.200 399.349,382.235 399.637,383.500 399.795 C 384.765 399.952,385.926 400.283,386.079 400.530 C 386.261 400.824,388.739 401.034,393.226 401.137 L 400.094 401.294 399.937 394.426 C 399.834 389.939,399.624 387.461,399.330 387.279 C 399.083 387.126,398.752 385.965,398.595 384.700 C 398.437 383.435,398.149 382.400,397.954 382.400 C 397.759 382.400,397.600 381.770,397.600 381.000 C 397.600 380.230,397.429 379.600,397.220 379.600 C 397.011 379.600,396.718 378.520,396.568 377.200 C 396.419 375.880,396.140 374.800,395.948 374.800 C 395.757 374.800,395.600 374.260,395.600 373.600 C 395.600 372.940,395.443 372.400,395.252 372.400 C 395.060 372.400,394.781 371.320,394.632 370.000 C 394.482 368.680,394.189 367.600,393.980 367.600 C 393.771 367.600,393.600 366.970,393.600 366.200 C 393.600 365.430,393.438 364.800,393.239 364.800 C 393.041 364.800,392.753 363.720,392.600 362.399 C 392.447 361.079,392.159 359.898,391.961 359.776 C 391.762 359.653,391.600 359.113,391.600 358.576 C 391.600 358.039,391.441 357.600,391.247 357.600 C 391.052 357.600,390.768 356.430,390.615 355.000 C 390.462 353.570,390.171 352.400,389.968 352.400 C 389.766 352.400,389.600 351.871,389.600 351.224 C 389.600 350.577,389.428 349.941,389.218 349.811 C 389.009 349.682,388.715 348.501,388.567 347.188 C 388.418 345.875,388.140 344.800,387.948 344.800 C 387.757 344.800,387.600 344.260,387.600 343.600 C 387.600 342.940,387.438 342.400,387.239 342.400 C 387.041 342.400,386.753 341.320,386.600 340.000 C 386.447 338.680,386.159 337.600,385.961 337.600 C 385.762 337.600,385.600 336.970,385.600 336.200 C 385.600 335.430,385.441 334.800,385.246 334.800 C 385.051 334.800,384.768 333.810,384.617 332.600 C 384.466 331.390,384.175 330.400,383.971 330.400 C 383.767 330.400,383.600 329.770,383.600 329.000 C 383.600 328.230,383.443 327.600,383.252 327.600 C 383.060 327.600,382.782 326.525,382.633 325.212 C 382.485 323.899,382.191 322.718,381.982 322.589 C 381.772 322.459,381.600 321.913,381.600 321.376 C 381.600 320.839,381.441 320.400,381.247 320.400 C 381.052 320.400,380.768 319.232,380.615 317.804 C 380.462 316.377,380.171 315.106,379.969 314.981 C 379.766 314.855,379.600 314.408,379.600 313.986 C 379.600 313.441,103.467 36.754,93.107 26.919 C 92.828 26.655,92.384 26.205,92.119 25.919 C 91.855 25.634,91.405 25.184,91.119 24.919 C 90.834 24.655,90.384 24.205,90.119 23.919 C 89.855 23.634,89.405 23.184,89.119 22.919 C 88.834 22.655,88.384 22.205,88.119 21.919 C 87.855 21.634,87.405 21.184,87.119 20.919 C 86.834 20.655,86.384 20.205,86.119 19.919 C 85.855 19.634,85.405 19.184,85.119 18.919 C 84.834 18.655,84.384 18.205,84.119 17.919 C 83.855 17.634,83.405 17.184,83.119 16.919 C 82.834 16.655,82.384 16.205,82.119 15.919 C 81.855 15.634,81.405 15.184,81.119 14.919 C 80.834 14.655,80.397 14.205,80.149 13.919 C 79.901 13.634,79.189 13.040,78.566 12.600 C 77.944 12.160,77.137 11.510,76.773 11.155 C 76.408 10.801,75.546 10.177,74.855 9.769 C 74.165 9.361,73.600 8.886,73.600 8.714 C 73.600 8.541,73.330 8.400,73.000 8.400 C 72.670 8.400,72.400 8.220,72.400 8.000 C 72.400 7.780,72.034 7.600,71.587 7.600 C 71.141 7.600,70.671 7.330,70.545 7.000 C 70.418 6.670,69.989 6.400,69.591 6.400 C 69.192 6.400,68.807 6.265,68.733 6.100 C 68.540 5.665,66.035 4.400,65.368 4.400 C 65.055 4.400,64.800 4.222,64.800 4.005 C 64.800 3.787,64.080 3.494,63.200 3.354 C 62.320 3.213,61.600 2.941,61.600 2.749 C 61.600 2.557,61.150 2.400,60.600 2.400 C 60.050 2.400,59.600 2.233,59.600 2.029 C 59.600 1.825,58.565 1.530,57.300 1.375 C 56.035 1.219,54.876 0.898,54.724 0.662 C 54.440 0.218,43.947 -0.050,39.500 0.273 M59.600 20.000 C 59.600 20.220,59.938 20.400,60.351 20.400 C 60.764 20.400,61.326 20.670,61.600 21.000 C 61.874 21.330,62.346 21.600,62.649 21.600 C 62.952 21.600,63.200 21.780,63.200 22.000 C 63.200 22.220,63.431 22.400,63.713 22.400 C 64.733 22.400,68.631 26.268,210.081 167.679 L 353.600 311.159 353.600 313.379 C 353.600 314.601,353.780 315.600,354.000 315.600 C 354.220 315.600,354.400 316.104,354.400 316.720 C 354.400 317.336,354.620 318.060,354.889 318.329 C 355.580 319.020,355.590 327.268,354.900 327.499 C 354.625 327.591,354.400 327.922,354.400 328.233 C 354.400 328.545,354.220 328.800,354.000 328.800 C 353.780 328.800,353.600 329.166,353.600 329.613 C 353.600 330.059,353.330 330.529,353.000 330.655 C 352.670 330.782,352.400 331.207,352.400 331.600 C 352.400 331.993,352.130 332.418,351.800 332.545 C 351.470 332.671,351.200 333.137,351.200 333.580 C 351.200 334.105,350.852 334.472,350.200 334.636 C 349.650 334.774,349.200 335.047,349.200 335.243 C 349.200 335.440,348.120 335.600,346.800 335.600 C 345.480 335.600,344.400 335.437,344.400 335.238 C 344.400 335.038,343.500 334.751,342.400 334.600 C 341.300 334.449,340.400 334.162,340.400 333.962 C 340.400 333.763,340.145 333.600,339.832 333.600 C 338.916 333.600,336.817 332.258,336.579 331.520 C 336.458 331.147,336.017 330.733,335.600 330.600 C 335.183 330.467,334.733 330.017,334.600 329.600 C 334.467 329.183,334.017 328.733,333.600 328.600 C 333.183 328.467,332.733 328.017,332.600 327.600 C 332.467 327.183,332.017 326.733,331.600 326.600 C 331.183 326.467,330.733 326.017,330.600 325.600 C 330.467 325.183,330.017 324.733,329.600 324.600 C 329.183 324.467,328.733 324.017,328.600 323.600 C 328.467 323.183,328.017 322.733,327.600 322.600 C 327.183 322.467,326.733 322.017,326.600 321.600 C 326.467 321.183,326.017 320.733,325.600 320.600 C 325.183 320.467,324.733 320.017,324.600 319.600 C 324.467 319.183,324.017 318.733,323.600 318.600 C 323.183 318.467,322.733 318.017,322.600 317.600 C 322.467 317.183,322.017 316.733,321.600 316.600 C 321.183 316.467,320.733 316.017,320.600 315.600 C 320.467 315.183,320.017 314.733,319.600 314.600 C 319.183 314.467,318.733 314.017,318.600 313.600 C 318.467 313.183,318.017 312.733,317.600 312.600 C 317.183 312.467,316.733 312.017,316.600 311.600 C 316.467 311.183,316.017 310.733,315.600 310.600 C 315.183 310.467,314.733 310.017,314.600 309.600 C 314.467 309.183,314.017 308.733,313.600 308.600 C 313.183 308.467,312.733 308.017,312.600 307.600 C 312.467 307.183,312.017 306.733,311.600 306.600 C 311.183 306.467,310.733 306.017,310.600 305.600 C 310.467 305.183,310.017 304.733,309.600 304.600 C 309.183 304.467,308.733 304.017,308.600 303.600 C 308.467 303.183,308.008 302.730,307.580 302.594 C 307.151 302.457,306.800 302.191,306.800 302.002 C 306.800 301.812,306.548 301.419,306.240 301.129 C 299.004 294.299,288.611 284.121,273.023 268.600 C 262.417 258.040,251.618 247.420,249.025 245.000 C 246.432 242.580,234.826 231.150,223.234 219.600 C 211.642 208.050,201.114 197.700,199.840 196.600 C 198.565 195.500,197.315 194.366,197.061 194.081 C 196.807 193.795,196.366 193.345,196.081 193.081 C 195.795 192.816,195.345 192.366,195.081 192.081 C 194.816 191.795,194.366 191.345,194.081 191.081 C 193.795 190.816,193.345 190.366,193.081 190.081 C 192.816 189.795,192.366 189.345,192.081 189.081 C 191.795 188.816,191.345 188.366,191.081 188.081 C 190.816 187.795,190.366 187.345,190.081 187.081 C 189.795 186.816,189.345 186.369,189.081 186.086 C 188.469 185.432,187.768 184.731,187.114 184.119 C 186.831 183.855,186.384 183.405,186.119 183.119 C 185.855 182.834,185.405 182.384,185.119 182.119 C 184.834 181.855,184.384 181.405,184.119 181.119 C 183.855 180.834,183.405 180.384,183.119 180.119 C 182.834 179.855,182.384 179.405,182.119 179.119 C 181.855 178.834,181.405 178.384,181.119 178.119 C 180.834 177.855,180.384 177.405,180.119 177.119 C 179.855 176.834,179.405 176.384,179.119 176.119 C 178.834 175.855,178.384 175.405,178.119 175.119 C 177.855 174.834,177.405 174.384,177.119 174.119 C 176.834 173.855,176.384 173.405,176.119 173.119 C 175.855 172.834,175.405 172.384,175.119 172.119 C 174.834 171.855,174.384 171.405,174.119 171.119 C 173.855 170.834,173.405 170.384,173.119 170.119 C 172.834 169.855,172.384 169.405,172.119 169.119 C 171.855 168.834,171.405 168.384,171.119 168.119 C 170.834 167.855,170.394 167.405,170.143 167.119 C 169.891 166.834,165.601 162.640,160.609 157.800 C 155.616 152.960,143.018 140.540,132.613 130.200 C 122.207 119.860,111.412 109.240,108.624 106.600 C 105.837 103.960,94.419 92.710,83.251 81.600 C 72.083 70.490,61.297 59.870,59.282 58.000 C 54.747 53.792,54.707 53.754,54.119 53.119 C 53.855 52.834,53.405 52.384,53.119 52.119 C 52.834 51.855,52.384 51.405,52.119 51.119 C 51.855 50.834,51.405 50.384,51.119 50.119 C 50.834 49.855,50.384 49.405,50.119 49.119 C 49.855 48.834,49.405 48.384,49.119 48.119 C 48.834 47.855,48.389 47.405,48.130 47.119 C 47.872 46.834,47.036 46.028,46.272 45.330 C 44.244 43.474,44.202 43.275,45.563 41.975 C 46.243 41.325,46.800 40.608,46.800 40.382 C 46.800 40.155,47.585 39.207,48.545 38.275 C 49.504 37.342,50.416 36.179,50.572 35.689 C 50.727 35.200,51.022 34.800,51.227 34.800 C 51.432 34.800,51.600 34.612,51.600 34.383 C 51.600 34.153,52.050 33.480,52.600 32.887 C 53.150 32.293,53.600 31.581,53.600 31.304 C 53.600 31.027,53.760 30.800,53.957 30.800 C 54.153 30.800,54.435 30.316,54.583 29.724 C 54.732 29.132,55.201 28.346,55.626 27.977 C 56.051 27.609,56.512 26.740,56.651 26.045 C 56.790 25.351,57.060 24.686,57.252 24.568 C 57.443 24.450,57.600 24.003,57.600 23.576 C 57.600 23.149,57.778 22.800,57.995 22.800 C 58.213 22.800,58.506 22.080,58.646 21.200 C 58.869 19.809,59.600 18.889,59.600 20.000 M36.884 51.019 C 37.168 51.360,37.634 51.855,37.919 52.119 C 38.205 52.384,38.655 52.834,38.919 53.119 C 39.184 53.405,39.634 53.855,39.919 54.119 C 40.205 54.384,40.655 54.834,40.919 55.119 C 41.184 55.405,41.634 55.855,41.919 56.119 C 42.205 56.384,42.655 56.834,42.919 57.119 C 43.184 57.405,43.634 57.855,43.919 58.119 C 44.205 58.384,44.655 58.834,44.919 59.119 C 45.184 59.405,45.634 59.855,45.919 60.119 C 46.205 60.384,46.655 60.834,46.919 61.119 C 47.184 61.405,47.634 61.855,47.919 62.119 C 48.205 62.384,48.655 62.834,48.919 63.119 C 49.184 63.405,49.634 63.855,49.919 64.119 C 50.205 64.384,50.655 64.834,50.919 65.119 C 51.184 65.405,51.634 65.855,51.919 66.119 C 52.205 66.384,52.655 66.831,52.919 67.114 C 53.184 67.397,53.607 67.847,53.860 68.114 C 54.113 68.381,57.056 71.210,60.399 74.400 C 63.743 77.590,75.753 89.430,87.089 100.711 C 98.425 111.993,109.052 122.433,110.704 123.911 C 112.356 125.390,123.007 135.870,134.373 147.200 C 145.739 158.530,156.233 168.880,157.693 170.200 C 161.324 173.482,161.338 173.494,161.881 174.081 C 162.145 174.366,162.595 174.816,162.881 175.081 C 163.166 175.345,163.616 175.795,163.881 176.081 C 164.145 176.366,164.595 176.816,164.881 177.081 C 165.166 177.345,165.616 177.795,165.881 178.081 C 166.145 178.366,166.595 178.816,166.881 179.081 C 167.166 179.345,167.616 179.795,167.881 180.081 C 168.145 180.366,168.595 180.816,168.881 181.081 C 169.166 181.345,169.616 181.795,169.881 182.081 C 170.145 182.366,170.595 182.816,170.881 183.081 C 171.166 183.345,171.616 183.795,171.881 184.081 C 172.145 184.366,172.595 184.816,172.881 185.081 C 173.166 185.345,173.616 185.795,173.881 186.081 C 174.145 186.366,174.595 186.816,174.881 187.081 C 175.166 187.345,175.616 187.795,175.881 188.081 C 176.145 188.366,176.595 188.816,176.881 189.081 C 177.166 189.345,177.616 189.795,177.881 190.081 C 178.145 190.366,178.595 190.816,178.881 191.081 C 179.166 191.345,179.616 191.795,179.881 192.081 C 180.145 192.366,180.595 192.816,180.881 193.081 C 181.166 193.345,181.616 193.795,181.881 194.081 C 182.145 194.366,182.595 194.816,182.881 195.081 C 183.166 195.345,183.616 195.795,183.881 196.081 C 184.145 196.366,184.595 196.816,184.881 197.081 C 185.166 197.345,185.616 197.795,185.881 198.081 C 186.145 198.366,186.595 198.816,186.881 199.081 C 187.166 199.345,187.616 199.795,187.881 200.081 C 188.145 200.366,188.595 200.816,188.881 201.081 C 189.166 201.345,189.606 201.795,189.858 202.081 C 190.110 202.366,193.948 206.110,198.386 210.400 C 202.825 214.690,215.147 226.840,225.768 237.400 C 236.390 247.960,247.196 258.580,249.781 261.000 C 252.367 263.420,263.702 274.580,274.971 285.800 C 286.239 297.020,297.036 307.640,298.964 309.400 C 300.891 311.160,302.678 312.834,302.934 313.119 C 303.190 313.405,303.634 313.855,303.919 314.119 C 304.205 314.384,304.655 314.834,304.919 315.119 C 305.184 315.405,305.634 315.855,305.919 316.119 C 306.205 316.384,306.655 316.834,306.919 317.119 C 307.184 317.405,307.634 317.855,307.919 318.119 C 308.205 318.384,308.655 318.834,308.919 319.119 C 309.184 319.405,309.634 319.855,309.919 320.119 C 310.205 320.384,310.655 320.834,310.919 321.119 C 311.184 321.405,311.634 321.855,311.919 322.119 C 312.205 322.384,312.655 322.834,312.919 323.119 C 313.184 323.405,313.634 323.855,313.919 324.119 C 314.205 324.384,314.655 324.834,314.919 325.119 C 315.184 325.405,315.625 325.855,315.900 326.119 C 316.175 326.384,319.904 330.087,324.187 334.348 C 329.551 339.686,332.164 342.023,332.587 341.860 C 333.115 341.658,333.200 342.234,333.200 346.013 C 333.200 348.671,333.042 350.400,332.800 350.400 C 332.580 350.400,332.400 350.940,332.400 351.600 C 332.400 352.260,332.243 352.800,332.050 352.800 C 331.858 352.800,331.590 353.352,331.455 354.027 C 331.005 356.274,328.305 358.304,325.344 358.621 C 322.405 358.936,316.800 358.506,316.800 357.966 C 316.800 357.765,316.449 357.600,316.020 357.600 C 315.234 357.600,23.600 66.365,23.600 65.580 C 23.600 65.371,23.461 65.200,23.291 65.200 C 23.121 65.200,22.643 64.570,22.228 63.800 C 21.813 63.030,21.322 62.400,21.137 62.400 C 20.952 62.400,20.800 62.143,20.800 61.829 C 20.800 61.514,20.568 61.019,20.285 60.729 C 19.813 60.244,18.400 57.523,18.400 57.098 C 18.400 56.998,19.703 56.807,21.295 56.673 C 22.887 56.540,24.252 56.244,24.328 56.015 C 24.404 55.787,24.891 55.600,25.410 55.600 C 25.928 55.600,26.451 55.440,26.572 55.245 C 26.693 55.050,27.423 54.772,28.196 54.627 C 28.968 54.482,29.600 54.192,29.600 53.982 C 29.600 53.772,29.870 53.600,30.200 53.600 C 30.530 53.600,30.800 53.420,30.800 53.200 C 30.800 52.980,31.166 52.800,31.613 52.800 C 32.059 52.800,32.529 52.530,32.655 52.200 C 32.782 51.870,33.207 51.600,33.600 51.600 C 33.993 51.600,34.418 51.330,34.545 51.000 C 34.845 50.218,36.226 50.230,36.884 51.019 M366.065 326.800 C 366.249 326.800,366.400 327.430,366.400 328.200 C 366.400 328.970,366.559 329.600,366.754 329.600 C 366.949 329.600,367.231 330.587,367.382 331.794 C 367.533 333.000,367.823 334.091,368.028 334.217 C 368.233 334.344,368.400 334.977,368.400 335.624 C 368.400 336.271,368.557 336.800,368.748 336.800 C 368.940 336.800,369.218 337.875,369.367 339.188 C 369.515 340.501,369.809 341.682,370.018 341.811 C 370.228 341.941,370.400 342.476,370.400 343.000 C 370.400 343.524,370.562 344.053,370.761 344.176 C 370.959 344.298,371.247 345.479,371.400 346.800 C 371.553 348.121,371.841 349.302,372.039 349.424 C 372.238 349.547,372.400 350.076,372.400 350.600 C 372.400 351.124,372.572 351.659,372.782 351.789 C 372.991 351.918,373.285 353.099,373.433 354.412 C 373.582 355.725,373.860 356.800,374.052 356.800 C 374.243 356.800,374.400 357.430,374.400 358.200 C 374.400 358.970,374.567 359.600,374.771 359.600 C 374.975 359.600,375.266 360.590,375.417 361.800 C 375.568 363.010,375.851 364.000,376.046 364.000 C 377.218 364.000,375.928 366.415,373.323 369.099 C 372.400 370.049,371.536 371.171,371.402 371.593 C 371.269 372.014,370.808 372.470,370.380 372.606 C 369.951 372.743,369.600 372.994,369.600 373.166 C 369.600 373.337,369.285 373.851,368.900 374.308 C 368.515 374.765,367.752 375.693,367.204 376.370 C 366.227 377.577,362.800 378.259,362.800 377.246 C 362.800 377.051,361.810 376.768,360.600 376.617 C 359.390 376.466,358.400 376.175,358.400 375.971 C 358.400 375.767,357.770 375.600,357.000 375.600 C 356.230 375.600,355.600 375.443,355.600 375.252 C 355.600 375.060,354.525 374.782,353.212 374.633 C 351.899 374.485,350.718 374.191,350.589 373.982 C 350.459 373.772,349.924 373.600,349.400 373.600 C 348.876 373.600,348.345 373.434,348.219 373.231 C 348.094 373.029,346.823 372.738,345.396 372.585 C 343.968 372.432,342.800 372.148,342.800 371.953 C 342.800 371.759,342.361 371.600,341.824 371.600 C 341.287 371.600,340.741 371.428,340.611 371.218 C 340.482 371.009,339.301 370.715,337.988 370.567 C 336.675 370.418,335.600 370.140,335.600 369.948 C 335.600 369.757,334.970 369.600,334.200 369.600 C 333.430 369.600,332.800 369.433,332.800 369.229 C 332.800 369.025,331.810 368.734,330.600 368.583 C 329.390 368.432,328.400 368.253,328.400 368.187 C 328.400 367.382,329.084 366.800,330.030 366.800 C 332.328 366.800,337.905 362.589,338.629 360.307 C 338.753 359.918,339.022 359.600,339.227 359.600 C 339.432 359.600,339.600 359.150,339.600 358.600 C 339.600 358.050,339.774 357.600,339.986 357.600 C 340.199 357.600,340.492 356.700,340.638 355.600 C 340.784 354.500,341.060 353.600,341.252 353.600 C 341.443 353.600,341.600 352.520,341.600 351.200 C 341.600 349.867,341.778 348.800,342.000 348.800 C 342.220 348.800,342.400 347.834,342.400 346.653 L 342.400 344.505 346.300 344.553 C 350.059 344.598,353.600 343.911,353.600 343.136 C 353.600 342.951,353.915 342.800,354.300 342.800 C 355.475 342.800,358.840 339.343,359.458 337.500 C 359.588 337.115,359.840 336.800,360.020 336.800 C 360.199 336.800,360.474 336.395,360.630 335.900 C 360.787 335.405,361.225 334.730,361.604 334.400 C 361.983 334.069,362.429 333.169,362.597 332.400 C 362.764 331.630,363.013 330.910,363.150 330.800 C 363.938 330.169,364.460 328.386,364.706 325.483 L 364.984 322.200 365.357 324.500 C 365.562 325.765,365.880 326.800,366.065 326.800 " stroke="pink" fill="skyblue" fill-rule="evenodd"></path>

<path id="path1" d="M39.500 0.273 C 38.235 0.365,37.200 0.602,37.200 0.800 C 37.200 0.998,36.120 1.282,34.800 1.432 C 33.480 1.581,32.400 1.860,32.400 2.052 C 32.400 2.243,31.950 2.400,31.400 2.400 C 30.850 2.400,30.400 2.566,30.400 2.768 C 30.400 2.971,29.815 3.263,29.100 3.418 C 28.385 3.574,27.710 3.825,27.600 3.978 C 27.490 4.130,26.530 4.671,25.468 5.179 C 24.405 5.687,23.441 6.349,23.325 6.651 C 23.209 6.953,22.768 7.200,22.345 7.200 C 21.921 7.200,21.471 7.470,21.345 7.800 C 21.218 8.130,20.902 8.400,20.642 8.400 C 20.383 8.400,19.355 9.165,18.359 10.100 C 17.363 11.035,16.045 12.160,15.430 12.600 C 14.066 13.576,13.680 13.964,12.400 15.644 C 11.850 16.366,10.770 17.617,10.000 18.423 C 8.438 20.058,7.785 20.967,7.205 22.310 C 6.989 22.811,6.556 23.319,6.242 23.439 C 5.929 23.559,5.563 24.095,5.428 24.629 C 5.294 25.163,5.008 25.600,4.792 25.600 C 4.577 25.600,4.400 25.960,4.400 26.400 C 4.400 26.840,4.236 27.200,4.035 27.200 C 3.834 27.200,3.549 27.920,3.400 28.800 C 3.251 29.680,2.966 30.400,2.765 30.400 C 2.564 30.400,2.400 30.670,2.400 31.000 C 2.400 31.330,2.240 31.600,2.045 31.600 C 1.850 31.600,1.564 32.455,1.408 33.500 C 1.252 34.545,0.917 35.653,0.663 35.961 C 0.011 36.752,0.010 56.311,0.661 56.715 C 0.914 56.872,1.250 57.855,1.406 58.900 C 1.563 59.945,1.850 60.800,2.045 60.800 C 2.240 60.800,2.400 61.250,2.400 61.800 C 2.400 62.350,2.560 62.800,2.755 62.800 C 2.951 62.800,3.229 63.430,3.374 64.200 C 3.518 64.970,3.808 65.600,4.018 65.600 C 4.228 65.600,4.400 65.870,4.400 66.200 C 4.400 66.530,4.557 66.800,4.750 66.800 C 4.942 66.800,5.213 67.364,5.351 68.054 C 5.489 68.743,5.935 69.598,6.344 69.954 C 6.752 70.309,7.213 71.005,7.370 71.500 C 7.526 71.995,7.822 72.400,8.027 72.400 C 8.232 72.400,8.400 72.670,8.400 73.000 C 8.400 73.330,8.568 73.600,8.773 73.600 C 8.978 73.600,9.271 73.994,9.424 74.475 C 9.576 74.956,10.308 75.922,11.051 76.622 C 11.793 77.322,12.400 78.040,12.400 78.218 C 12.400 78.396,80.599 146.724,163.953 230.056 L 315.506 381.570 318.053 382.230 C 319.454 382.592,320.960 383.032,321.400 383.207 C 322.959 383.827,327.068 384.800,328.126 384.800 C 328.717 384.800,329.200 384.937,329.200 385.105 C 329.200 385.451,332.636 386.409,334.900 386.695 C 335.725 386.799,336.400 387.045,336.400 387.242 C 336.400 387.439,336.827 387.600,337.350 387.600 C 337.872 387.600,339.065 387.870,340.000 388.200 C 340.935 388.530,342.128 388.800,342.650 388.800 C 343.173 388.800,343.600 388.980,343.600 389.200 C 343.600 389.420,344.185 389.608,344.900 389.618 C 345.615 389.627,346.920 389.895,347.800 390.212 C 348.680 390.529,349.805 390.791,350.300 390.794 C 350.795 390.797,351.200 390.980,351.200 391.200 C 351.200 391.420,351.593 391.600,352.074 391.600 C 352.889 391.600,357.052 392.593,358.400 393.109 C 359.308 393.456,363.218 394.411,364.800 394.672 C 365.570 394.799,366.290 395.031,366.400 395.187 C 366.594 395.462,369.660 396.233,372.300 396.672 C 373.015 396.790,373.600 397.025,373.600 397.192 C 373.600 397.360,374.680 397.619,376.000 397.768 C 377.320 397.918,378.400 398.211,378.400 398.420 C 378.400 398.629,379.030 398.800,379.800 398.800 C 380.570 398.800,381.200 398.959,381.200 399.154 C 381.200 399.349,382.235 399.637,383.500 399.795 C 384.765 399.952,385.926 400.283,386.079 400.530 C 386.261 400.824,388.739 401.034,393.226 401.137 L 400.094 401.294 399.937 394.426 C 399.834 389.939,399.624 387.461,399.330 387.279 C 399.083 387.126,398.752 385.965,398.595 384.700 C 398.437 383.435,398.149 382.400,397.954 382.400 C 397.759 382.400,397.600 381.770,397.600 381.000 C 397.600 380.230,397.429 379.600,397.220 379.600 C 397.011 379.600,396.718 378.520,396.568 377.200 C 396.419 375.880,396.140 374.800,395.948 374.800 C 395.757 374.800,395.600 374.260,395.600 373.600 C 395.600 372.940,395.443 372.400,395.252 372.400 C 395.060 372.400,394.781 371.320,394.632 370.000 C 394.482 368.680,394.189 367.600,393.980 367.600 C 393.771 367.600,393.600 366.970,393.600 366.200 C 393.600 365.430,393.438 364.800,393.239 364.800 C 393.041 364.800,392.753 363.720,392.600 362.399 C 392.447 361.079,392.159 359.898,391.961 359.776 C 391.762 359.653,391.600 359.113,391.600 358.576 C 391.600 358.039,391.441 357.600,391.247 357.600 C 391.052 357.600,390.768 356.430,390.615 355.000 C 390.462 353.570,390.171 352.400,389.968 352.400 C 389.766 352.400,389.600 351.871,389.600 351.224 C 389.600 350.577,389.428 349.941,389.218 349.811 C 389.009 349.682,388.715 348.501,388.567 347.188 C 388.418 345.875,388.140 344.800,387.948 344.800 C 387.757 344.800,387.600 344.260,387.600 343.600 C 387.600 342.940,387.438 342.400,387.239 342.400 C 387.041 342.400,386.753 341.320,386.600 340.000 C 386.447 338.680,386.159 337.600,385.961 337.600 C 385.762 337.600,385.600 336.970,385.600 336.200 C 385.600 335.430,385.441 334.800,385.246 334.800 C 385.051 334.800,384.768 333.810,384.617 332.600 C 384.466 331.390,384.175 330.400,383.971 330.400 C 383.767 330.400,383.600 329.770,383.600 329.000 C 383.600 328.230,383.443 327.600,383.252 327.600 C 383.060 327.600,382.782 326.525,382.633 325.212 C 382.485 323.899,382.191 322.718,381.982 322.589 C 381.772 322.459,381.600 321.913,381.600 321.376 C 381.600 320.839,381.441 320.400,381.247 320.400 C 381.052 320.400,380.768 319.232,380.615 317.804 C 380.462 316.377,380.171 315.106,379.969 314.981 C 379.766 314.855,379.600 314.408,379.600 313.986 C 379.600 313.441,103.467 36.754,93.107 26.919 C 92.828 26.655,92.384 26.205,92.119 25.919 C 91.855 25.634,91.405 25.184,91.119 24.919 C 90.834 24.655,90.384 24.205,90.119 23.919 C 89.855 23.634,89.405 23.184,89.119 22.919 C 88.834 22.655,88.384 22.205,88.119 21.919 C 87.855 21.634,87.405 21.184,87.119 20.919 C 86.834 20.655,86.384 20.205,86.119 19.919 C 85.855 19.634,85.405 19.184,85.119 18.919 C 84.834 18.655,84.384 18.205,84.119 17.919 C 83.855 17.634,83.405 17.184,83.119 16.919 C 82.834 16.655,82.384 16.205,82.119 15.919 C 81.855 15.634,81.405 15.184,81.119 14.919 C 80.834 14.655,80.397 14.205,80.149 13.919 C 79.901 13.634,79.189 13.040,78.566 12.600 C 77.944 12.160,77.137 11.510,76.773 11.155 C 76.408 10.801,75.546 10.177,74.855 9.769 C 74.165 9.361,73.600 8.886,73.600 8.714 C 73.600 8.541,73.330 8.400,73.000 8.400 C 72.670 8.400,72.400 8.220,72.400 8.000 C 72.400 7.780,72.034 7.600,71.587 7.600 C 71.141 7.600,70.671 7.330,70.545 7.000 C 70.418 6.670,69.989 6.400,69.591 6.400 C 69.192 6.400,68.807 6.265,68.733 6.100 C 68.540 5.665,66.035 4.400,65.368 4.400 C 65.055 4.400,64.800 4.222,64.800 4.005 C 64.800 3.787,64.080 3.494,63.200 3.354 C 62.320 3.213,61.600 2.941,61.600 2.749 C 61.600 2.557,61.150 2.400,60.600 2.400 C 60.050 2.400,59.600 2.233,59.600 2.029 C 59.600 1.825,58.565 1.530,57.300 1.375 C 56.035 1.219,54.876 0.898,54.724 0.662 C 54.440 0.218,43.947 -0.050,39.500 0.273 M59.600 20.000 C 59.600 20.220,59.938 20.400,60.351 20.400 C 60.764 20.400,61.326 20.670,61.600 21.000 C 61.874 21.330,62.346 21.600,62.649 21.600 C 62.952 21.600,63.200 21.780,63.200 22.000 C 63.200 22.220,63.431 22.400,63.713 22.400 C 64.733 22.400,68.631 26.268,210.081 167.679 L 353.600 311.159 353.600 313.379 C 353.600 314.601,353.780 315.600,354.000 315.600 C 354.220 315.600,354.400 316.104,354.400 316.720 C 354.400 317.336,354.620 318.060,354.889 318.329 C 355.580 319.020,355.590 327.268,354.900 327.499 C 354.625 327.591,354.400 327.922,354.400 328.233 C 354.400 328.545,354.220 328.800,354.000 328.800 C 353.780 328.800,353.600 329.166,353.600 329.613 C 353.600 330.059,353.330 330.529,353.000 330.655 C 352.670 330.782,352.400 331.207,352.400 331.600 C 352.400 331.993,352.130 332.418,351.800 332.545 C 351.470 332.671,351.200 333.137,351.200 333.580 C 351.200 334.105,350.852 334.472,350.200 334.636 C 349.650 334.774,349.200 335.047,349.200 335.243 C 349.200 335.440,348.120 335.600,346.800 335.600 C 345.480 335.600,344.400 335.437,344.400 335.238 C 344.400 335.038,343.500 334.751,342.400 334.600 C 341.300 334.449,340.400 334.162,340.400 333.962 C 340.400 333.763,340.145 333.600,339.832 333.600 C 338.916 333.600,336.817 332.258,336.579 331.520 C 336.458 331.147,336.017 330.733,335.600 330.600 C 335.183 330.467,334.733 330.017,334.600 329.600 C 334.467 329.183,334.017 328.733,333.600 328.600 C 333.183 328.467,332.733 328.017,332.600 327.600 C 332.467 327.183,332.017 326.733,331.600 326.600 C 331.183 326.467,330.733 326.017,330.600 325.600 C 330.467 325.183,330.017 324.733,329.600 324.600 C 329.183 324.467,328.733 324.017,328.600 323.600 C 328.467 323.183,328.017 322.733,327.600 322.600 C 327.183 322.467,326.733 322.017,326.600 321.600 C 326.467 321.183,326.017 320.733,325.600 320.600 C 325.183 320.467,324.733 320.017,324.600 319.600 C 324.467 319.183,324.017 318.733,323.600 318.600 C 323.183 318.467,322.733 318.017,322.600 317.600 C 322.467 317.183,322.017 316.733,321.600 316.600 C 321.183 316.467,320.733 316.017,320.600 315.600 C 320.467 315.183,320.017 314.733,319.600 314.600 C 319.183 314.467,318.733 314.017,318.600 313.600 C 318.467 313.183,318.017 312.733,317.600 312.600 C 317.183 312.467,316.733 312.017,316.600 311.600 C 316.467 311.183,316.017 310.733,315.600 310.600 C 315.183 310.467,314.733 310.017,314.600 309.600 C 314.467 309.183,314.017 308.733,313.600 308.600 C 313.183 308.467,312.733 308.017,312.600 307.600 C 312.467 307.183,312.017 306.733,311.600 306.600 C 311.183 306.467,310.733 306.017,310.600 305.600 C 310.467 305.183,310.017 304.733,309.600 304.600 C 309.183 304.467,308.733 304.017,308.600 303.600 C 308.467 303.183,308.008 302.730,307.580 302.594 C 307.151 302.457,306.800 302.191,306.800 302.002 C 306.800 301.812,306.548 301.419,306.240 301.129 C 299.004 294.299,288.611 284.121,273.023 268.600 C 262.417 258.040,251.618 247.420,249.025 245.000 C 246.432 242.580,234.826 231.150,223.234 219.600 C 211.642 208.050,201.114 197.700,199.840 196.600 C 198.565 195.500,197.315 194.366,197.061 194.081 C 196.807 193.795,196.366 193.345,196.081 193.081 C 195.795 192.816,195.345 192.366,195.081 192.081 C 194.816 191.795,194.366 191.345,194.081 191.081 C 193.795 190.816,193.345 190.366,193.081 190.081 C 192.816 189.795,192.366 189.345,192.081 189.081 C 191.795 188.816,191.345 188.366,191.081 188.081 C 190.816 187.795,190.366 187.345,190.081 187.081 C 189.795 186.816,189.345 186.369,189.081 186.086 C 188.469 185.432,187.768 184.731,187.114 184.119 C 186.831 183.855,186.384 183.405,186.119 183.119 C 185.855 182.834,185.405 182.384,185.119 182.119 C 184.834 181.855,184.384 181.405,184.119 181.119 C 183.855 180.834,183.405 180.384,183.119 180.119 C 182.834 179.855,182.384 179.405,182.119 179.119 C 181.855 178.834,181.405 178.384,181.119 178.119 C 180.834 177.855,180.384 177.405,180.119 177.119 C 179.855 176.834,179.405 176.384,179.119 176.119 C 178.834 175.855,178.384 175.405,178.119 175.119 C 177.855 174.834,177.405 174.384,177.119 174.119 C 176.834 173.855,176.384 173.405,176.119 173.119 C 175.855 172.834,175.405 172.384,175.119 172.119 C 174.834 171.855,174.384 171.405,174.119 171.119 C 173.855 170.834,173.405 170.384,173.119 170.119 C 172.834 169.855,172.384 169.405,172.119 169.119 C 171.855 168.834,171.405 168.384,171.119 168.119 C 170.834 167.855,170.394 167.405,170.143 167.119 C 169.891 166.834,165.601 162.640,160.609 157.800 C 155.616 152.960,143.018 140.540,132.613 130.200 C 122.207 119.860,111.412 109.240,108.624 106.600 C 105.837 103.960,94.419 92.710,83.251 81.600 C 72.083 70.490,61.297 59.870,59.282 58.000 C 54.747 53.792,54.707 53.754,54.119 53.119 C 53.855 52.834,53.405 52.384,53.119 52.119 C 52.834 51.855,52.384 51.405,52.119 51.119 C 51.855 50.834,51.405 50.384,51.119 50.119 C 50.834 49.855,50.384 49.405,50.119 49.119 C 49.855 48.834,49.405 48.384,49.119 48.119 C 48.834 47.855,48.389 47.405,48.130 47.119 C 47.872 46.834,47.036 46.028,46.272 45.330 C 44.244 43.474,44.202 43.275,45.563 41.975 C 46.243 41.325,46.800 40.608,46.800 40.382 C 46.800 40.155,47.585 39.207,48.545 38.275 C 49.504 37.342,50.416 36.179,50.572 35.689 C 50.727 35.200,51.022 34.800,51.227 34.800 C 51.432 34.800,51.600 34.612,51.600 34.383 C 51.600 34.153,52.050 33.480,52.600 32.887 C 53.150 32.293,53.600 31.581,53.600 31.304 C 53.600 31.027,53.760 30.800,53.957 30.800 C 54.153 30.800,54.435 30.316,54.583 29.724 C 54.732 29.132,55.201 28.346,55.626 27.977 C 56.051 27.609,56.512 26.740,56.651 26.045 C 56.790 25.351,57.060 24.686,57.252 24.568 C 57.443 24.450,57.600 24.003,57.600 23.576 C 57.600 23.149,57.778 22.800,57.995 22.800 C 58.213 22.800,58.506 22.080,58.646 21.200 C 58.869 19.809,59.600 18.889,59.600 20.000 M36.884 51.019 C 37.168 51.360,37.634 51.855,37.919 52.119 C 38.205 52.384,38.655 52.834,38.919 53.119 C 39.184 53.405,39.634 53.855,39.919 54.119 C 40.205 54.384,40.655 54.834,40.919 55.119 C 41.184 55.405,41.634 55.855,41.919 56.119 C 42.205 56.384,42.655 56.834,42.919 57.119 C 43.184 57.405,43.634 57.855,43.919 58.119 C 44.205 58.384,44.655 58.834,44.919 59.119 C 45.184 59.405,45.634 59.855,45.919 60.119 C 46.205 60.384,46.655 60.834,46.919 61.119 C 47.184 61.405,47.634 61.855,47.919 62.119 C 48.205 62.384,48.655 62.834,48.919 63.119 C 49.184 63.405,49.634 63.855,49.919 64.119 C 50.205 64.384,50.655 64.834,50.919 65.119 C 51.184 65.405,51.634 65.855,51.919 66.119 C 52.205 66.384,52.655 66.831,52.919 67.114 C 53.184 67.397,53.607 67.847,53.860 68.114 C 54.113 68.381,57.056 71.210,60.399 74.400 C 63.743 77.590,75.753 89.430,87.089 100.711 C 98.425 111.993,109.052 122.433,110.704 123.911 C 112.356 125.390,123.007 135.870,134.373 147.200 C 145.739 158.530,156.233 168.880,157.693 170.200 C 161.324 173.482,161.338 173.494,161.881 174.081 C 162.145 174.366,162.595 174.816,162.881 175.081 C 163.166 175.345,163.616 175.795,163.881 176.081 C 164.145 176.366,164.595 176.816,164.881 177.081 C 165.166 177.345,165.616 177.795,165.881 178.081 C 166.145 178.366,166.595 178.816,166.881 179.081 C 167.166 179.345,167.616 179.795,167.881 180.081 C 168.145 180.366,168.595 180.816,168.881 181.081 C 169.166 181.345,169.616 181.795,169.881 182.081 C 170.145 182.366,170.595 182.816,170.881 183.081 C 171.166 183.345,171.616 183.795,171.881 184.081 C 172.145 184.366,172.595 184.816,172.881 185.081 C 173.166 185.345,173.616 185.795,173.881 186.081 C 174.145 186.366,174.595 186.816,174.881 187.081 C 175.166 187.345,175.616 187.795,175.881 188.081 C 176.145 188.366,176.595 188.816,176.881 189.081 C 177.166 189.345,177.616 189.795,177.881 190.081 C 178.145 190.366,178.595 190.816,178.881 191.081 C 179.166 191.345,179.616 191.795,179.881 192.081 C 180.145 192.366,180.595 192.816,180.881 193.081 C 181.166 193.345,181.616 193.795,181.881 194.081 C 182.145 194.366,182.595 194.816,182.881 195.081 C 183.166 195.345,183.616 195.795,183.881 196.081 C 184.145 196.366,184.595 196.816,184.881 197.081 C 185.166 197.345,185.616 197.795,185.881 198.081 C 186.145 198.366,186.595 198.816,186.881 199.081 C 187.166 199.345,187.616 199.795,187.881 200.081 C 188.145 200.366,188.595 200.816,188.881 201.081 C 189.166 201.345,189.606 201.795,189.858 202.081 C 190.110 202.366,193.948 206.110,198.386 210.400 C 202.825 214.690,215.147 226.840,225.768 237.400 C 236.390 247.960,247.196 258.580,249.781 261.000 C 252.367 263.420,263.702 274.580,274.971 285.800 C 286.239 297.020,297.036 307.640,298.964 309.400 C 300.891 311.160,302.678 312.834,302.934 313.119 C 303.190 313.405,303.634 313.855,303.919 314.119 C 304.205 314.384,304.655 314.834,304.919 315.119 C 305.184 315.405,305.634 315.855,305.919 316.119 C 306.205 316.384,306.655 316.834,306.919 317.119 C 307.184 317.405,307.634 317.855,307.919 318.119 C 308.205 318.384,308.655 318.834,308.919 319.119 C 309.184 319.405,309.634 319.855,309.919 320.119 C 310.205 320.384,310.655 320.834,310.919 321.119 C 311.184 321.405,311.634 321.855,311.919 322.119 C 312.205 322.384,312.655 322.834,312.919 323.119 C 313.184 323.405,313.634 323.855,313.919 324.119 C 314.205 324.384,314.655 324.834,314.919 325.119 C 315.184 325.405,315.625 325.855,315.900 326.119 C 316.175 326.384,319.904 330.087,324.187 334.348 C 329.551 339.686,332.164 342.023,332.587 341.860 C 333.115 341.658,333.200 342.234,333.200 346.013 C 333.200 348.671,333.042 350.400,332.800 350.400 C 332.580 350.400,332.400 350.940,332.400 351.600 C 332.400 352.260,332.243 352.800,332.050 352.800 C 331.858 352.800,331.590 353.352,331.455 354.027 C 331.005 356.274,328.305 358.304,325.344 358.621 C 322.405 358.936,316.800 358.506,316.800 357.966 C 316.800 357.765,316.449 357.600,316.020 357.600 C 315.234 357.600,23.600 66.365,23.600 65.580 C 23.600 65.371,23.461 65.200,23.291 65.200 C 23.121 65.200,22.643 64.570,22.228 63.800 C 21.813 63.030,21.322 62.400,21.137 62.400 C 20.952 62.400,20.800 62.143,20.800 61.829 C 20.800 61.514,20.568 61.019,20.285 60.729 C 19.813 60.244,18.400 57.523,18.400 57.098 C 18.400 56.998,19.703 56.807,21.295 56.673 C 22.887 56.540,24.252 56.244,24.328 56.015 C 24.404 55.787,24.891 55.600,25.410 55.600 C 25.928 55.600,26.451 55.440,26.572 55.245 C 26.693 55.050,27.423 54.772,28.196 54.627 C 28.968 54.482,29.600 54.192,29.600 53.982 C 29.600 53.772,29.870 53.600,30.200 53.600 C 30.530 53.600,30.800 53.420,30.800 53.200 C 30.800 52.980,31.166 52.800,31.613 52.800 C 32.059 52.800,32.529 52.530,32.655 52.200 C 32.782 51.870,33.207 51.600,33.600 51.600 C 33.993 51.600,34.418 51.330,34.545 51.000 C 34.845 50.218,36.226 50.230,36.884 51.019 M366.065 326.800 C 366.249 326.800,366.400 327.430,366.400 328.200 C 366.400 328.970,366.559 329.600,366.754 329.600 C 366.949 329.600,367.231 330.587,367.382 331.794 C 367.533 333.000,367.823 334.091,368.028 334.217 C 368.233 334.344,368.400 334.977,368.400 335.624 C 368.400 336.271,368.557 336.800,368.748 336.800 C 368.940 336.800,369.218 337.875,369.367 339.188 C 369.515 340.501,369.809 341.682,370.018 341.811 C 370.228 341.941,370.400 342.476,370.400 343.000 C 370.400 343.524,370.562 344.053,370.761 344.176 C 370.959 344.298,371.247 345.479,371.400 346.800 C 371.553 348.121,371.841 349.302,372.039 349.424 C 372.238 349.547,372.400 350.076,372.400 350.600 C 372.400 351.124,372.572 351.659,372.782 351.789 C 372.991 351.918,373.285 353.099,373.433 354.412 C 373.582 355.725,373.860 356.800,374.052 356.800 C 374.243 356.800,374.400 357.430,374.400 358.200 C 374.400 358.970,374.567 359.600,374.771 359.600 C 374.975 359.600,375.266 360.590,375.417 361.800 C 375.568 363.010,375.851 364.000,376.046 364.000 C 377.218 364.000,375.928 366.415,373.323 369.099 C 372.400 370.049,371.536 371.171,371.402 371.593 C 371.269 372.014,370.808 372.470,370.380 372.606 C 369.951 372.743,369.600 372.994,369.600 373.166 C 369.600 373.337,369.285 373.851,368.900 374.308 C 368.515 374.765,367.752 375.693,367.204 376.370 C 366.227 377.577,362.800 378.259,362.800 377.246 C 362.800 377.051,361.810 376.768,360.600 376.617 C 359.390 376.466,358.400 376.175,358.400 375.971 C 358.400 375.767,357.770 375.600,357.000 375.600 C 356.230 375.600,355.600 375.443,355.600 375.252 C 355.600 375.060,354.525 374.782,353.212 374.633 C 351.899 374.485,350.718 374.191,350.589 373.982 C 350.459 373.772,349.924 373.600,349.400 373.600 C 348.876 373.600,348.345 373.434,348.219 373.231 C 348.094 373.029,346.823 372.738,345.396 372.585 C 343.968 372.432,342.800 372.148,342.800 371.953 C 342.800 371.759,342.361 371.600,341.824 371.600 C 341.287 371.600,340.741 371.428,340.611 371.218 C 340.482 371.009,339.301 370.715,337.988 370.567 C 336.675 370.418,335.600 370.140,335.600 369.948 C 335.600 369.757,334.970 369.600,334.200 369.600 C 333.430 369.600,332.800 369.433,332.800 369.229 C 332.800 369.025,331.810 368.734,330.600 368.583 C 329.390 368.432,328.400 368.253,328.400 368.187 C 328.400 367.382,329.084 366.800,330.030 366.800 C 332.328 366.800,337.905 362.589,338.629 360.307 C 338.753 359.918,339.022 359.600,339.227 359.600 C 339.432 359.600,339.600 359.150,339.600 358.600 C 339.600 358.050,339.774 357.600,339.986 357.600 C 340.199 357.600,340.492 356.700,340.638 355.600 C 340.784 354.500,341.060 353.600,341.252 353.600 C 341.443 353.600,341.600 352.520,341.600 351.200 C 341.600 349.867,341.778 348.800,342.000 348.800 C 342.220 348.800,342.400 347.834,342.400 346.653 L 342.400 344.505 346.300 344.553 C 350.059 344.598,353.600 343.911,353.600 343.136 C 353.600 342.951,353.915 342.800,354.300 342.800 C 355.475 342.800,358.840 339.343,359.458 337.500 C 359.588 337.115,359.840 336.800,360.020 336.800 C 360.199 336.800,360.474 336.395,360.630 335.900 C 360.787 335.405,361.225 334.730,361.604 334.400 C 361.983 334.069,362.429 333.169,362.597 332.400 C 362.764 331.630,363.013 330.910,363.150 330.800 C 363.938 330.169,364.460 328.386,364.706 325.483 L 364.984 322.200 365.357 324.500 C 365.562 325.765,365.880 326.800,366.065 326.800 " stroke="lightpink" fill="grey" fill-rule="evenodd"></path></g></svg>